<?xml version="1.0" encoding="UTF-8" standalone="no"?><!DOCTYPE svg PUBLIC "-//W3C//DTD SVG 1.1//EN" "http://www.w3.org/Graphics/SVG/1.1/DTD/svg11.dtd"><svg width="100%" height="100%" viewBox="0 0 251 251" version="1.1" xmlns="http://www.w3.org/2000/svg" xmlns:xlink="http://www.w3.org/1999/xlink" xml:space="preserve" xmlns:serif="http://www.serif.com/" style="fill-rule:evenodd;clip-rule:evenodd;stroke-linejoin:round;stroke-miterlimit:2;"><rect id="Artboard1" x="0.152" y="0.307" width="250" height="250" style="fill:none;"/><g><path d="M93.133,170.383l38.793,-90.152l10.958,25.527l-21.003,48.764c-4.146,9.625 -13.621,15.861 -24.101,15.861l-4.647,0Z" /><path d="M63.945,170.383l-38.793,-90.152l4.647,0c10.48,0 19.956,6.236 24.102,15.861c8.241,19.134 21.003,48.764 21.003,48.764l-10.959,25.527Z" /><path d="M148.424,170.383l38.793,-90.152l10.958,25.527l-21.003,48.764c-4.146,9.625 -13.621,15.861 -24.101,15.861l-4.647,0Z" /><path d="M214.194,144.856l-10.959,25.527l21.917,0l-10.958,-25.527Z" /></g></svg>