<?xml version="1.0" standalone="no"?>
<!DOCTYPE svg PUBLIC "-//W3C//DTD SVG 1.1//EN" "http://www.w3.org/Graphics/SVG/1.1/DTD/svg11.dtd" >
<svg xmlns="http://www.w3.org/2000/svg" xmlns:xlink="http://www.w3.org/1999/xlink" version="1.1">
<metadata>
Created by FontForge 20190801 at Mon Nov 25 15:47:57 2019
 By Unknown
Copyright (c) 2018 by Adrien Midzic. All rights reserved.
</metadata>
<defs>
<font id="Lack-Line-Regular" horiz-adv-x="1376" >
  <font-face 
    font-family="Lack Line"
    font-weight="400"
    font-stretch="normal"
    units-per-em="2048"
    panose-1="0 0 5 0 0 0 0 0 0 0"
    ascent="1536"
    descent="-512"
    x-height="1075"
    cap-height="1407"
    bbox="-240 -477 2365 1960"
    underline-thickness="114"
    underline-position="-836"
    unicode-range="U+0020-FB04"
  />
<missing-glyph horiz-adv-x="748" 
d="M68 0v1365h544v-1365h-544zM136 68h408v1229h-408v-1229z" />
    <glyph glyph-name="uniFB01" unicode="fi" horiz-adv-x="1607" 
d="M86 741v213h225q6 235 164.5 383t403.5 148q86 0 157 -18.5t110.5 -44.5t67 -52t36.5 -44l10 -19l2 -7v-221l-31 -8q-4 7 -12 19.5t-38.5 44.5t-66 56t-95 44t-126.5 20q-149 0 -236 -80.5t-92 -220.5h711v-778h246v-192h-746v192h246v565h-457v-757h-254v757h-225z
M119 774h225v-758h188v758h523v-631h-246v-127h680v127h-246v779h-711q-4 169 93.5 267.5t267.5 98.5q205 0 336 -158v166q-5 11 -15 25.5t-37.5 39t-63.5 43.5t-98 33.5t-136 14.5q-240 0 -390.5 -148t-144.5 -382h-225v-148z" />
    <glyph glyph-name="uniFB02" unicode="fl" horiz-adv-x="1435" 
d="M86 741v213h225q5 237 142.5 384t355.5 147q61 0 116 -9.5t96.5 -25t78.5 -36t63 -42.5t48 -44.5t35.5 -43t22.5 -36t13 -24.5l4 -10l-6 -20l8 4v-1214h-254v1165q-4 8 -10.5 18t-23.5 26.5t-39 29.5t-59.5 22.5t-82.5 9.5q-126 0 -188.5 -73.5t-65.5 -227.5h334v-213
h-334v-757h-254v757h-225zM119 774h225v-758h188v758h334v148h-334q-6 366 287 366q56 0 101.5 -13.5t71.5 -32t43.5 -37.5t23.5 -33l6 -13l2 -6v-1137h188v1178l-24 12l20 11q-11 22 -27 45.5t-53.5 59.5t-83.5 63t-119.5 47t-158.5 20q-211 0 -340 -147t-125 -383h-225
v-148z" />
    <glyph glyph-name=".notdef" horiz-adv-x="748" 
d="M68 0v1365h544v-1365h-544zM136 68h408v1229h-408v-1229z" />
    <glyph glyph-name="glyph1" horiz-adv-x="0" 
 />
    <glyph glyph-name="glyph2" horiz-adv-x="682" 
 />
    <glyph glyph-name="space" unicode=" " horiz-adv-x="532" 
 />
    <glyph glyph-name="exclam" unicode="!" horiz-adv-x="696" 
d="M168 150q0 75 52.5 127.5t127.5 52.5q74 0 127 -53t53 -127q0 -75 -52.5 -128t-127.5 -53q-76 0 -128 52t-52 129zM201 150q0 -65 41.5 -106.5t105.5 -41.5q63 0 105.5 42.5t42.5 105.5q0 61 -43 104t-105 43q-63 0 -105 -42t-42 -105zM213 518v930h272v-930h-272z
M246 551h207v864h-207v-864z" />
    <glyph glyph-name="quotedbl" unicode="&#x22;" horiz-adv-x="747" 
d="M63 1446h261l-37 -537h-187zM100 1413l29 -471h129l29 471h-187zM424 1446h260l-37 -537h-186zM461 1413l28 -471h129l29 471h-186z" />
    <glyph glyph-name="numbersign" unicode="#" horiz-adv-x="1441" 
d="M33 369v241h303l53 138h-268v241h362l138 357h274l-137 -357h172l137 357h274l-137 -357h213v-241h-307l-53 -138h272v-241h-368l-150 -389h-274l149 389h-172l-149 -389h-275l156 389h-213zM66 401h229l-156 -389h205l150 389h241l-149 -389h205l149 389h356v177h-288
l82 202h294v176h-229l137 357h-205l-137 -357h-241l137 357h-205l-137 -357h-350v-176h284l-82 -202h-290v-177zM561 578l82 202h242l-82 -202h-242zM610 610h172l54 138h-172z" />
    <glyph glyph-name="dollar" unicode="$" horiz-adv-x="1191" 
d="M76 102v273q95 -83 224.5 -131.5t256.5 -48.5q277 0 277 174q0 67 -61.5 111.5t-217.5 109.5q-112 47 -183.5 87.5t-128.5 95t-82.5 124t-25.5 162.5q0 132 91 231t249 137v125h256v-108q154 -18 285 -111v-289q-62 72 -165.5 115t-217.5 43q-112 -1 -174 -39t-62 -104
q0 -21 3 -38.5t13.5 -33.5t19 -28t30.5 -26t36 -23t48 -24.5t54.5 -24t66.5 -27.5q91 -37 153 -68.5t118 -72.5t88 -86.5t50.5 -105t18.5 -134.5q0 -146 -98.5 -252.5t-266.5 -143.5v-157h-256v141q-124 9 -228.5 47.5t-170.5 99.5zM109 119q144 -123 399 -133v-140h190v152
q167 29 266 129t99 240q0 70 -17 125.5t-46.5 97t-83 80t-112.5 68t-149 67.5q-45 19 -67 28.5t-56.5 25t-51.5 26t-40 26.5t-33.5 30t-22 33t-15.5 39.5t-4 45.5q0 82 71 128t197 48q96 0 188.5 -30.5t161.5 -84.5v197q-129 86 -285 98v105h-190v-117q-158 -34 -249 -126
t-91 -218q0 -88 22.5 -151.5t76.5 -115t121.5 -89.5t178.5 -85q82 -34 128 -56.5t90 -52.5t62.5 -63.5t18.5 -76.5q0 -101 -78.5 -154t-230.5 -53q-116 0 -234 38.5t-214 106.5v-188z" />
    <glyph glyph-name="percent" unicode="%" horiz-adv-x="1476" 
d="M106 1130q0 131 92.5 224.5t221.5 93.5q130 0 223.5 -93.5t93.5 -224.5q0 -129 -93 -221t-224 -92q-129 0 -221.5 92t-92.5 221zM139 1130q0 -117 82 -198.5t199 -81.5q119 0 202 81.5t83 198.5q0 118 -83.5 201.5t-201.5 83.5q-117 0 -199 -83t-82 -202zM219 -49
l799 1493h213l-799 -1493h-213zM250 1130q0 71 50.5 123t119.5 52q70 0 122 -52t52 -123q0 -69 -51.5 -119t-122.5 -50q-69 0 -119.5 50t-50.5 119zM272 -16h140l766 1427h-140zM283 1130q0 -57 40 -97t97 -40q59 0 100 40t41 97q0 59 -41.5 100.5t-99.5 41.5
q-57 0 -97 -41.5t-40 -100.5zM739 264q0 131 92.5 224.5t221.5 93.5q130 0 223.5 -93.5t93.5 -224.5q0 -129 -93 -221t-224 -92q-129 0 -221.5 92t-92.5 221zM772 264q0 -117 82 -198.5t199 -81.5q119 0 201.5 81.5t82.5 198.5q0 119 -83 202t-201 83q-117 0 -199 -83
t-82 -202zM883 264q0 71 50.5 122.5t119.5 51.5q71 0 122.5 -52t51.5 -122q0 -69 -51.5 -119.5t-122.5 -50.5q-69 0 -119.5 50.5t-50.5 119.5zM915 264q0 -57 40.5 -97t97.5 -40q59 0 100 40t41 97q0 59 -41.5 100.5t-99.5 41.5q-57 0 -97.5 -41.5t-40.5 -100.5z" />
    <glyph glyph-name="ampersand" unicode="&#x26;" horiz-adv-x="1452" 
d="M66 352q0 120 70.5 213t225.5 176q-72 94 -103.5 168t-31.5 150q0 180 106 280.5t294 100.5q180 0 282.5 -92.5t102.5 -253.5q0 -98 -77 -203t-212 -193l151 -161l115 -121l254 254v-281l-113 -121l279 -284h-324q-8 7 -23.5 24t-21.5 23q-23 25 -71 73
q-171 -151 -418 -151q-213 0 -350 104q-135 105 -135 295zM98 352q0 -171 123 -270q128 -96 330 -96q251 0 418 164q42 -37 94 -97q12 -14 35 -37h233l-246 252l125 133v191l-221 -225l-317 340q143 85 225 188.5t82 198.5q0 149 -92.5 231t-259.5 82q-175 0 -271 -91
t-96 -257q0 -75 34.5 -150.5t117.5 -179.5q-165 -82 -239.5 -171t-74.5 -206zM295 350q0 86 54 159t151 116l364 -369q-130 -109 -284 -109q-132 0 -208.5 54t-76.5 149zM328 350q0 -80 66.5 -125t185.5 -45q126 0 235 80l-323 324q-78 -40 -121 -101t-43 -133zM455 1075
q0 78 46.5 124t125.5 46q82 0 128 -45t46 -125q0 -144 -211 -272q-74 79 -104.5 140t-30.5 132zM487 1075q0 -60 24 -111.5t83 -119.5q174 113 174 231q0 66 -36.5 101.5t-104.5 35.5q-66 0 -103 -35.5t-37 -101.5z" />
    <glyph glyph-name="quotesingle" unicode="'" horiz-adv-x="456" 
d="M43 807l74 639h299l-164 -639h-209zM80 840h147l148 573h-230z" />
    <glyph glyph-name="parenleft" unicode="(" horiz-adv-x="753" 
d="M127 664q0 128 23 265.5t56 243t65.5 192t55.5 133.5l23 46l15 8h239l14 -24q-9 -17 -24 -47.5t-54 -126.5t-68.5 -193t-54 -234t-24.5 -263q0 -125 23.5 -264.5t57.5 -249.5t68 -202.5t58 -143.5l23 -50l-15 -24h-243l-15 10q-9 19 -24 53.5t-53.5 140t-68 210
t-53.5 249t-24 271.5zM160 664q0 -142 27.5 -298.5t70 -286t69 -199.5t48.5 -118h207q-28 62 -55.5 133.5t-70.5 201t-69.5 280t-26.5 287.5q0 111 19 231.5t43.5 211t59 184.5t55 140t41.5 89h-203q-21 -42 -48 -107t-69.5 -185t-70 -271t-27.5 -293z" />
    <glyph glyph-name="parenright" unicode=")" horiz-adv-x="733" 
d="M131 -246q9 19 24.5 53t55 138t69.5 207t55 245t25 267q0 126 -23 261t-56 238.5t-66.5 188.5t-56.5 130l-23 46l15 24h219l14 -8q9 -17 24 -48.5t53.5 -129t68 -196t53.5 -238.5t24 -268q0 -127 -23 -269t-56 -254t-65.5 -205.5t-55.5 -144.5l-23 -51l-14 -10h-224z
M172 -238h186q22 48 48.5 118t69 199.5t70 286t27.5 298.5t-27.5 293t-70 271t-69.5 185t-48 107h-182q28 -57 55.5 -124.5t69 -187t67 -263.5t25.5 -281t-26.5 -287.5t-69 -280t-70 -201t-55.5 -133.5z" />
    <glyph glyph-name="asterisk" unicode="*" horiz-adv-x="874" 
d="M59 958l213 107l-213 106l97 168l198 -131l-12 238h190l-12 -238l199 131l96 -168l-213 -106l213 -107l-96 -165l-199 131l12 -240h-190l12 238l-198 -131zM104 946l64 -110l223 147l-16 -266h125l-17 268l224 -147l63 108l-242 119l242 119l-63 110l-224 -151l17 270
h-125l16 -266l-223 147l-64 -110l242 -119z" />
    <glyph glyph-name="plus" unicode="+" horiz-adv-x="1386" 
d="M131 604v244h426v416h272v-416h426v-244h-426v-416h-272v416h-426zM164 637h426v-416h207v416h426v178h-426v416h-207v-416h-426v-178z" />
    <glyph glyph-name="comma" unicode="," horiz-adv-x="681" 
d="M18 -326l195 557h311l-264 -557h-242zM63 -293h177l231 492h-233z" />
    <glyph glyph-name="hyphen" unicode="-" horiz-adv-x="1052" 
d="M129 483v242h795v-242h-795zM162 516h729v176h-729v-176z" />
    <glyph glyph-name="period" unicode="." horiz-adv-x="655" 
d="M147 150q0 75 53 127.5t128 52.5q74 0 127 -53t53 -127q0 -75 -52.5 -128t-127.5 -53q-76 0 -128.5 52.5t-52.5 128.5zM180 150q0 -64 42 -106t106 -42q63 0 105 42.5t42 105.5q0 62 -42.5 104.5t-104.5 42.5q-63 0 -105.5 -42t-42.5 -105z" />
    <glyph glyph-name="slash" unicode="/" horiz-adv-x="931" 
d="M-25 -133l707 1583h274l-706 -1583h-275zM25 -100h204l678 1517h-205z" />
    <glyph glyph-name="zero" unicode="0" horiz-adv-x="1228" 
d="M86 696q-3 223 60 390t184.5 259t285.5 95q165 -3 285 -94.5t182.5 -258.5t59.5 -391q5 -343 -138 -545t-389 -198q-247 -4 -391 198.5t-139 544.5zM119 696q-5 -328 130.5 -521t366.5 -189q231 -4 365 188.5t129 521.5q5 324 -128 515.5t-366 195.5q-234 -4 -368 -196
t-129 -515zM315 696q0 259 77 397t224 138t222 -136.5t75 -398.5t-75 -397t-222 -135q-148 0 -224.5 136.5t-76.5 395.5zM348 696q0 -246 67.5 -372.5t200.5 -126.5q265 0 265 499q0 502 -265 502q-132 0 -200 -128.5t-68 -373.5z" />
    <glyph glyph-name="one" unicode="1" horiz-adv-x="1087" 
d="M127 -16v229h328v967h-328v227h584v-1194h290v-229h-874zM160 16h809v164h-291v1194h-518v-162h327v-1032h-327v-164z" />
    <glyph glyph-name="two" unicode="2" horiz-adv-x="1226" 
d="M88 -14l467 563q-171 28 -282 153.5t-111 292.5q0 187 137.5 320t331.5 133t331.5 -133t137.5 -320q0 -176 -119 -301l-403 -481h516v-229h-889l2 2h-119zM158 18h127l-2 -2h778v164h-553l448 535q111 117 111 280q0 173 -128 296.5t-308 123.5t-308 -123.5t-128 -296.5
q0 -170 122 -292t301 -128zM389 995q0 101 70.5 171.5t171.5 70.5t171 -70.5t70 -171.5t-70 -171t-171 -70t-171.5 70t-70.5 171zM422 995q0 -89 60 -149t149 -60t149 60t60 149t-60 149t-149 60t-149 -60t-60 -149z" />
    <glyph glyph-name="three" unicode="3" horiz-adv-x="1200" 
d="M127 444h264q-6 -102 61 -172.5t169 -70.5q97 0 163 65t66 162q0 98 -65.5 163.5t-163.5 65.5q-74 0 -127 -34l184 557h-496v227h830l-185 -539h-20l6 -2q137 -56 219 -175t82 -263q0 -129 -66 -238.5t-179.5 -173t-247.5 -63.5q-209 0 -354.5 144.5t-139.5 346.5z
M160 412q8 -179 141 -302.5t320 -123.5q192 0 326 129t134 313q0 134 -75.5 245t-202.5 163h-21l185 538h-752v-162h508l-174 -530q46 8 72 8q110 0 186 -76t76 -186t-76 -185t-186 -75q-106 0 -181.5 70t-81.5 174h-198z" />
    <glyph glyph-name="four" unicode="4" horiz-adv-x="1175" 
d="M74 449l536 958h279l-404 -733h543v-688h-272v463h-682zM131 481h657v-463h207v623h-567l403 733h-200z" />
    <glyph glyph-name="five" unicode="5" horiz-adv-x="1159" 
d="M86 444h264q-6 -102 61 -172.5t169 -70.5q97 0 163 65t66 162q0 98 -65.5 163.5t-163.5 65.5q-68 0 -115 -30l-125 51v729h719v-227h-463v-275q100 -3 176 -39q137 -56 219 -175t82 -263q0 -129 -66 -238.5t-179.5 -173t-247.5 -63.5q-209 0 -354.5 144.5t-139.5 346.5z
M119 412q8 -179 141 -302.5t320 -123.5q192 0 326 129t134 313q0 135 -76 246t-204 164q-88 37 -197 34v340h463v162h-653v-676l90 -34q51 26 117 26q110 0 186 -76t76 -186t-76 -185t-186 -75q-106 0 -181.5 70t-81.5 174h-198z" />
    <glyph glyph-name="six" unicode="6" horiz-adv-x="1241" 
d="M127 430q0 189 135 330v-2l516 649h316l-396 -506q179 -26 297.5 -160t118.5 -311q0 -129 -66 -238.5t-179.5 -173t-247.5 -63.5q-204 0 -349 139.5t-145 335.5zM160 430q0 -184 134.5 -313t326.5 -129t326 129t134 313q0 180 -129 309t-317 135l393 500h-233l-508 -637
v-2q-127 -130 -127 -305zM358 430q0 110 76.5 186t186.5 76t186 -76t76 -186t-76 -185t-186 -75q-111 0 -187 75t-76 185zM391 430q0 -96 66.5 -161.5t163.5 -65.5t163 65t66 162q0 98 -65.5 163.5t-163.5 65.5t-164 -65.5t-66 -163.5z" />
    <glyph glyph-name="seven" unicode="7" horiz-adv-x="1085" 
d="M127 1180v227h858l-522 -1423h-281l449 1196h-504zM160 1212h520l-449 -1196h207l502 1358h-780v-162z" />
    <glyph glyph-name="eight" unicode="8" horiz-adv-x="1159" 
d="M78 414q0 105 50 198.5t140 157.5q-106 112 -106 270q0 167 122.5 285.5t295.5 118.5t295 -118.5t122 -285.5q0 -158 -106 -270q90 -64 140 -157.5t50 -198.5q0 -125 -66.5 -230.5t-182 -167t-252.5 -61.5t-252.5 61.5t-182.5 167t-67 230.5zM111 414q0 -177 137 -301.5
t332 -124.5t332 124.5t137 301.5q0 106 -55.5 199t-153.5 153q125 109 125 274q0 154 -112.5 262.5t-272.5 108.5t-272.5 -108.5t-112.5 -262.5q0 -166 124 -274q-98 -60 -153 -153t-55 -199zM303 412q0 109 80 183.5t197 74.5t196.5 -74.5t79.5 -183.5q0 -110 -79.5 -186
t-196.5 -76t-197 76t-80 186zM336 412q0 -98 70 -164t174 -66t173.5 66t69.5 164q0 97 -69.5 161t-173.5 64t-174 -64t-70 -161zM373 1040q0 88 59.5 146.5t147.5 58.5t147 -58.5t59 -146.5q0 -86 -59 -144t-147 -58t-147.5 58t-59.5 144zM406 1040q0 -72 50 -121t124 -49
t124 49t50 121q0 73 -50 122.5t-124 49.5t-124 -49.5t-50 -122.5z" />
    <glyph glyph-name="nine" unicode="9" horiz-adv-x="1159" 
d="M86 965q0 196 145 335.5t349 139.5q134 0 247.5 -63.5t179.5 -173t66 -238.5q0 -125 -63 -236h6l-594 -745h-301l397 505q-185 23 -308.5 159t-123.5 317zM119 965q0 -120 61.5 -222.5t168 -163t233.5 -61.5l-396 -502h220l540 680h33l-14 27q75 107 75 242
q0 184 -134 313t-326 129t-326.5 -129t-134.5 -313zM317 965q0 110 76 185t187 75q110 0 186 -75t76 -185t-76 -186.5t-186 -76.5t-186.5 76.5t-76.5 186.5zM350 965q0 -98 66 -164t164 -66t163.5 66t65.5 164q0 97 -66 162t-163 65t-163.5 -65.5t-66.5 -161.5z" />
    <glyph glyph-name="colon" unicode=":" horiz-adv-x="913" 
d="M276 150q0 75 53 127.5t128 52.5q73 0 126.5 -53t53.5 -127q0 -75 -52.5 -128t-127.5 -53q-77 0 -129 52.5t-52 128.5zM276 817q0 75 53 127.5t128 52.5q73 0 126.5 -53.5t53.5 -126.5q0 -75 -52.5 -127.5t-127.5 -52.5q-77 0 -129 52t-52 128zM309 150q0 -64 41.5 -106
t106.5 -42q63 0 105 42.5t42 105.5q0 62 -43 104.5t-104 42.5q-63 0 -105.5 -42t-42.5 -105zM309 817q0 -64 41.5 -105.5t106.5 -41.5q63 0 105 42t42 105q0 62 -43 105t-104 43q-63 0 -105.5 -42.5t-42.5 -105.5z" />
    <glyph glyph-name="semicolon" unicode=";" horiz-adv-x="856" 
d="M88 -326l195 557h311l-264 -557h-242zM133 -293h176l232 492h-234zM276 817q0 75 53 127.5t128 52.5q73 0 126.5 -53.5t53.5 -126.5q0 -75 -52.5 -127.5t-127.5 -52.5q-77 0 -129 52t-52 128zM309 817q0 -64 41.5 -105.5t106.5 -41.5q63 0 105 42t42 105q0 62 -43 105
t-104 43q-63 0 -105.5 -42.5t-42.5 -105.5z" />
    <glyph glyph-name="less" unicode="&#x3c;" horiz-adv-x="1103" 
d="M86 502v153l932 428v-239l-633 -264l633 -365v-244zM119 522l866 -493v166l-674 389l674 280v170l-866 -399v-113z" />
    <glyph glyph-name="equal" unicode="=" horiz-adv-x="1290" 
d="M170 369v241h952v-241h-952zM170 788v242h952v-242h-952zM203 401h887v177h-887v-177zM203 821h887v176h-887v-176z" />
    <glyph glyph-name="greater" unicode="&#x3e;" horiz-adv-x="1103" 
d="M86 -29v244l633 365l-633 264v239l932 -428v-153zM119 29l866 493v113l-866 399v-170l674 -280l-674 -389v-166z" />
    <glyph glyph-name="question" unicode="?" horiz-adv-x="727" 
d="M106 150q0 75 53 127.5t128 52.5q73 0 126.5 -53t53.5 -127q0 -75 -52.5 -128t-127.5 -53q-77 0 -129 52.5t-52 128.5zM139 150q0 -64 41.5 -106t106.5 -42q63 0 105 42.5t42 105.5q0 62 -43 104.5t-104 42.5q-63 0 -105.5 -42t-42.5 -105zM166 436v350q95 -6 160 55
t65 154t-65 154t-160 55v244q98 3 188 -32t155 -96t103.5 -146t38.5 -179q0 -120 -62 -225t-169 -166v-168h-254zM199 469h188v156q107 54 169 153.5t62 216.5q0 169 -122 291.5t-297 128.5v-178q96 -6 160.5 -75t64.5 -167t-64.5 -166.5t-160.5 -74.5v-285z" />
    <glyph glyph-name="at" unicode="@" horiz-adv-x="1742" 
d="M66 430q0 161 64 308t172 253.5t256.5 170t311.5 63.5q173 0 323 -57t256 -156t167 -239.5t61 -301.5q0 -195 -101 -314.5t-265 -119.5q-74 0 -127 27.5t-78 78.5q-44 -47 -113.5 -77.5t-132.5 -30.5q-177 0 -298.5 119t-121.5 292q0 172 121.5 291t296.5 119
q119 0 201 -63v43h209v-529q0 -41 12.5 -59.5t40.5 -18.5q59 0 95 72.5t36 147.5q0 255 -157.5 405t-424.5 150q-153 0 -283.5 -77t-207 -209.5t-76.5 -287.5q0 -158 80.5 -291.5t218.5 -209.5t299 -72v-222q-169 -3 -323.5 59t-266.5 168.5t-178.5 255t-66.5 312.5zM98 430
q0 -153 61 -293t164 -241.5t245.5 -163t299.5 -64.5v156q-122 3 -232.5 52.5t-190.5 130.5t-127.5 191.5t-47.5 231.5q0 122 48 234.5t128.5 193.5t191.5 129.5t232 48.5q281 0 448 -159.5t167 -427.5q0 -50 -17 -105.5t-56 -101t-91 -45.5q-86 0 -86 110v496h-143v-103
q-20 53 -87.5 88t-146.5 35q-163 0 -274 -108.5t-111 -268.5t112 -269t275 -109q77 0 157.5 46.5t104.5 108.5q0 -72 50.5 -112.5t138.5 -40.5q150 0 242 109.5t92 291.5q0 207 -99.5 372t-276.5 257t-399 92q-157 0 -300 -60.5t-246.5 -162.5t-164.5 -243t-61 -296z
M625 446q0 100 68 170t165 70q103 0 168.5 -67t65.5 -173q0 -107 -65 -173t-169 -66q-97 0 -165 69.5t-68 169.5zM657 446q0 -86 59 -146t142 -60q91 0 146 56t55 150t-55 150.5t-146 56.5q-83 0 -142 -60.5t-59 -146.5z" />
    <glyph glyph-name="A" unicode="A" horiz-adv-x="1542" 
d="M18 -16l633 1423h240l633 -1423h-295l-133 329h-650l-133 -329h-295zM68 16h225l133 330h690l133 -330h226l-605 1358h-198zM496 522l276 649l275 -649h-551zM545 555h452l-225 535z" />
    <glyph glyph-name="B" unicode="B" horiz-adv-x="1363" 
d="M168 -16v1423h586q236 0 352.5 -93t116.5 -282q0 -98 -45.5 -169t-128.5 -103q116 -32 182.5 -122t66.5 -216q0 -211 -132 -324.5t-375 -113.5h-623zM201 16h590q229 0 352 105.5t123 300.5q0 132 -80 219.5t-213 97.5v33q102 17 159.5 86t57.5 174q0 175 -106 258.5
t-330 83.5h-553v-1358zM391 193v460h383q289 0 289 -227q0 -233 -289 -233h-383zM391 819v379h334q43 0 72.5 -2t64 -7.5t57 -18t42.5 -32t30.5 -50.5t12.5 -72q0 -105 -68.5 -151t-222.5 -46h-322zM424 225h350q130 0 193 49.5t63 151.5q0 99 -63 147t-193 48h-350v-396z
M424 852h289q142 0 200 37t58 127q-2 42 -15 70t-31 43.5t-52 23.5t-64.5 10t-83.5 2h-301v-313z" />
    <glyph glyph-name="C" unicode="C" horiz-adv-x="1441" 
d="M76 696v10q0 150 58 285q60 139 163.5 238t250.5 156q142 55 301 55h11q160 0 277 -40t190 -91v-244l-31 -8q-4 6 -26 21t-63.5 35.5t-92 39.5t-118.5 32t-136 13q-233 0 -376.5 -139t-143.5 -363q0 -226 142.5 -362.5t377.5 -136.5q153 0 289.5 47t216.5 127v-277
l-8 -14q-1 0 -20.5 -12t-37.5 -21t-50.5 -24t-70.5 -26t-85.5 -21.5t-108 -16.5t-125.5 -6h-13q-213 1 -389 95q-181 98 -283 268q-99 167 -99 368v12zM109 696v-10q0 -144 55 -272q57 -132 156.5 -227t239.5 -149q135 -52 289 -52h11q290 0 473 118v197
q-88 -65 -212.5 -101t-260.5 -36q-248 0 -400.5 146.5t-152.5 385.5q0 238 153 386.5t400 148.5q131 0 246.5 -41.5t187.5 -89.5v192q-181 115 -434 115h-11q-153 0 -289 -52q-140 -54 -239.5 -148.5t-156.5 -227.5q-55 -128 -55 -273v-10z" />
    <glyph glyph-name="D" unicode="D" horiz-adv-x="1556" 
d="M168 -16v1423h520q352 0 562 -193.5t210 -517.5q0 -156 -56.5 -289t-157 -226t-244.5 -145t-314 -52h-520zM201 16h487q330 0 534.5 188t204.5 492q0 310 -200.5 494t-538.5 184h-487v-1358zM391 195v1003h279q269 0 414 -130.5t145 -371.5q-7 -244 -150.5 -372.5
t-406.5 -128.5h-281zM424 227h248q250 0 383 120t141 349q0 227 -135.5 348t-390.5 121h-246v-938z" />
    <glyph glyph-name="E" unicode="E" horiz-adv-x="1314" 
d="M168 -16v1423h1049v-242h-793v-303h631v-241h-631v-396h805v-241h-1061zM201 16h995v177h-805v460h631v176h-631v369h793v176h-983v-1358z" />
    <glyph glyph-name="F" unicode="F" horiz-adv-x="1277" 
d="M168 -16v1423h1049v-242h-793v-303h631v-241h-631v-637h-256zM201 16h190v637h631v176h-631v369h793v176h-983v-1358z" />
    <glyph glyph-name="G" unicode="G" horiz-adv-x="1589" 
d="M86 696v10q0 151 58 285q59 139 163 238t251 156q142 55 301 55h11q178 0 308 -45q144 -50 198 -88v-285q-42 54 -202 123q-127 53 -304 53q-233 0 -376.5 -139t-143.5 -363q0 -215 138.5 -358t345.5 -143q200 0 360 116v277h-416v241h672v-845h-256v59
q-161 -90 -360 -90q-211 0 -383.5 98t-270.5 269q-94 165 -94 364v12zM119 696v-10q0 -142 52 -268q54 -132 149 -227t229 -150t285 -55q109 0 212 30.5t181 85.5v-86h190v781h-606v-176h416v-326q-72 -55 -174 -94t-219 -39q-221 0 -369 152.5t-148 381.5q0 238 153 386.5
t400 148.5q190 0 316 -57q97 -39 157 -80v196q-59 32 -178 72q-116 45 -295 45h-11q-153 0 -289 -52q-140 -54 -239.5 -148.5t-156.5 -227.5q-55 -128 -55 -273v-10z" />
    <glyph glyph-name="H" unicode="H" horiz-adv-x="1538" 
d="M168 -16v1423h256v-545h690v545h256v-1423h-256v637h-690v-637h-256zM201 16h190v637h756v-637h190v1358h-190v-545h-756v545h-190v-1358z" />
    <glyph glyph-name="I" unicode="I" horiz-adv-x="591" 
d="M168 -16v1423h256v-1423h-256zM201 16h190v1358h-190v-1358z" />
    <glyph glyph-name="J" unicode="J" horiz-adv-x="1110" 
d="M68 78v213l24 14q28 -16 70.5 -36t127 -46t148.5 -26q162 0 230.5 61.5t68.5 206.5v942h256v-938q0 -239 -140.5 -377.5t-383.5 -138.5q-99 0 -250 45.5t-151 79.5zM100 78q20 -10 55.5 -25.5t132.5 -41t181 -25.5q230 0 361 128.5t131 354.5v905h-191v-909
q0 -159 -78.5 -230t-253.5 -71q-84 0 -178.5 32.5t-159.5 67.5v-186z" />
    <glyph glyph-name="K" unicode="K" horiz-adv-x="1404" 
d="M168 -16v1423h254v-610l649 610h340l-635 -582l625 -841h-320l-491 665l-168 -157v-508h-254zM201 16h188v488l205 194l504 -682h237l-604 813l594 545h-242l-694 -655v655h-188v-1358z" />
    <glyph glyph-name="L" unicode="L" horiz-adv-x="1327" 
d="M168 -16v1423h254v-1182h844v-241h-1098zM201 16h1032v177h-844v1181h-188v-1358z" />
    <glyph glyph-name="M" unicode="M" horiz-adv-x="1693" 
d="M168 -16v1423h285l409 -631v49l379 582h285v-1423h-254v1015l-316 -477h-219l-315 477v-1015h-254zM201 16h188v1094l365 -555h186l365 555v-1094h188v1358h-236l-428 -659v53l-393 606h-235v-1358z" />
    <glyph glyph-name="N" unicode="N" horiz-adv-x="1579" 
d="M168 -16v1423h281l708 -1018v1018h254v-1423h-272l-717 1034v-1034h-254zM201 16h188v1108l766 -1108h223v1358h-188v-1087l-758 1087h-231v-1358z" />
    <glyph glyph-name="O" unicode="O" horiz-adv-x="1644" 
d="M76 696v10q0 148 56 283q58 139 157 239q99 98 238 156q134 56 284 56h10h10q149 0 285 -56q140 -58 240 -157t158 -238q56 -134 55 -283v-10v-10q1 -148 -55 -283q-58 -139 -158 -238t-240 -157q-135 -56 -285 -55h-10h-10q-149 -1 -284 55q-139 58 -239 157
q-98 99 -156 238q-56 134 -56 283v10zM109 696v-12q1 -190 91 -350q94 -164 258 -258q160 -91 351 -90h12h10q142 0 272 53q134 55 229.5 150t150.5 227q53 128 53 270v10v10q0 141 -53 270q-55 133 -150.5 228t-229.5 150q-129 53 -272 53h-10h-10q-141 -1 -271 -53
q-134 -54 -229 -149t-149 -228q-53 -128 -53 -271v-10zM305 696q0 233 145 384t371 151q227 0 371.5 -150t144.5 -385t-144 -383.5t-372 -148.5q-227 0 -371.5 149.5t-144.5 382.5zM338 696q0 -221 134.5 -360t348.5 -139q215 0 349.5 138t134.5 361q0 221 -135 361.5
t-349 140.5q-212 0 -347.5 -141t-135.5 -361z" />
    <glyph glyph-name="P" unicode="P" horiz-adv-x="1429" 
d="M168 -16v1423h670q222 0 365 -133t143 -340t-145 -340t-370 -133h-407v-477h-256zM201 16h190v478h440q212 0 347 123t135 317t-133 317t-342 123h-637v-1358zM391 666v532h430q126 0 210.5 -76.5t84.5 -191.5q0 -114 -84.5 -189t-210.5 -75h-430zM424 698h397
q114 0 188 66t74 166q0 101 -74 168t-188 67h-397v-467z" />
    <glyph glyph-name="Q" unicode="Q" horiz-adv-x="1644" 
d="M76 696v10q0 149 56 283q57 139 156.5 238.5t238.5 156.5q134 56 284 56h10h10q150 0 285 -56q140 -57 240 -156.5t158 -238.5q55 -134 55 -283v-10v-16q0 -129 -45 -250q-49 -130 -142 -235h238v-242h-799h-10q-150 0 -284 55q-139 58 -238.5 157t-156.5 238
q-56 134 -56 283v10zM109 696v-12q0 -190 91 -350q93 -164 258 -258q160 -90 351 -90h12h766v176h-282q114 103 174 242q57 132 57 277v15v10q0 142 -53 270q-55 133 -150.5 228t-229.5 150q-129 53 -272 53h-10h-10q-143 0 -271 -53q-134 -54 -229 -149t-149 -228
q-53 -128 -53 -271v-10zM305 696q0 233 145 384t371 151q227 0 371.5 -150t144.5 -385t-144 -383.5t-372 -148.5q-227 0 -371.5 149.5t-144.5 382.5zM338 696q0 -221 134.5 -360t348.5 -139q215 0 349.5 138t134.5 361q0 221 -135 361.5t-349 140.5q-212 0 -347.5 -141
t-135.5 -361z" />
    <glyph glyph-name="R" unicode="R" horiz-adv-x="1411" 
d="M168 -16v1423h629q230 0 369 -120.5t139 -321.5q0 -154 -85 -264t-239 -154l420 -563h-320l-397 538h-260v-538h-256zM201 16h190v539h309l398 -539h237l-409 551q164 34 255 138.5t91 259.5q0 186 -129 297.5t-346 111.5h-596v-1358zM391 727v471h389q135 0 215 -64
t80 -173q0 -107 -80 -170.5t-215 -63.5h-389zM424 760h356q123 0 192.5 53.5t69.5 147.5q0 95 -69.5 149.5t-192.5 54.5h-356v-405z" />
    <glyph glyph-name="S" unicode="S" horiz-adv-x="1191" 
d="M76 102v273q95 -83 224.5 -131.5t256.5 -48.5q277 0 277 174q0 67 -61.5 111.5t-217.5 109.5q-112 47 -183.5 87.5t-128.5 95t-82.5 124t-25.5 162.5q0 170 145.5 279.5t372.5 109.5h10q190 0 353 -115v-289q-62 72 -165.5 115t-217.5 43q-112 -1 -174 -39t-62 -104
q0 -21 3 -38.5t13.5 -33.5t19 -28t30.5 -26t36 -23t48 -24.5t54.5 -24t66.5 -27.5q91 -37 153 -68.5t118 -72.5t88 -86.5t50.5 -105t18.5 -134.5q0 -184 -151 -300t-388 -116q-164 0 -287.5 44t-193.5 107zM109 119q75 -64 193 -99.5t255 -35.5q224 0 365 107t141 276
q0 70 -17 125.5t-46.5 97t-83 80t-112.5 68t-149 67.5q-45 19 -67 28.5t-56.5 25t-51.5 26t-40 26.5t-33.5 30t-22 33t-15.5 39.5t-4 45.5q0 82 71 128t197 48q96 0 188.5 -30.5t161.5 -84.5v197q-148 98 -320 98h-10q-214 0 -349.5 -99.5t-135.5 -256.5q0 -88 22.5 -151.5
t76.5 -115t121.5 -89.5t178.5 -85q82 -34 128 -56.5t90 -52.5t62.5 -63.5t18.5 -76.5q0 -101 -78.5 -154t-230.5 -53q-116 0 -234 38.5t-214 106.5v-188z" />
    <glyph glyph-name="T" unicode="T" horiz-adv-x="1359" 
d="M66 1165v242h1228v-242h-487v-1181h-254v1181h-487zM98 1198h488v-1182h188v1182h488v176h-1164v-176z" />
    <glyph glyph-name="U" unicode="U" horiz-adv-x="1445" 
d="M137 530v877h256v-872q0 -158 86.5 -246t243.5 -88q169 0 249.5 82t80.5 252v872h256v-877q0 -278 -151.5 -427.5t-434.5 -149.5t-434.5 149.5t-151.5 427.5zM170 530q0 -264 142.5 -404t410.5 -140t410.5 140t142.5 404v844h-191v-839q0 -185 -89.5 -276t-272.5 -91
q-169 0 -266 98t-97 269v839h-190v-844z" />
    <glyph glyph-name="V" unicode="V" horiz-adv-x="1437" 
d="M39 1407h291l383 -1059l395 1059h291l-543 -1423h-274zM88 1374l518 -1358h225l519 1358h-217l-420 -1120l-408 1120h-217z" />
    <glyph glyph-name="W" unicode="W" horiz-adv-x="2117" 
d="M41 1407h289l297 -1065l295 1065h274l297 -1065l295 1065h289l-443 -1423h-282l-293 1030l-291 -1030h-285zM86 1374l422 -1358h235l316 1117l317 -1117h234l422 1358h-220l-319 -1155l-322 1155h-225l-319 -1155l-322 1155h-219z" />
    <glyph glyph-name="X" unicode="X" horiz-adv-x="1456" 
d="M31 -16l538 749l-508 674h312l348 -483l356 483h312l-515 -676l551 -747h-311l-393 538l-379 -538h-311zM96 16h230l395 564l409 -564h230l-526 715l489 643h-229l-373 -508l-365 508h-229l483 -641z" />
    <glyph glyph-name="Y" unicode="Y" horiz-adv-x="1384" 
d="M10 1407h305l377 -578l375 578h307l-553 -815v-608h-258v608zM72 1374l524 -774v-584h192v584l525 774h-230l-391 -606l-393 606h-227z" />
    <glyph glyph-name="Z" unicode="Z" horiz-adv-x="1400" 
d="M137 -16v231l807 950h-768v242h1102v-231l-801 -951h828v-241h-1168zM170 16h1102v177h-864l837 995v186h-1036v-176h805l-844 -995v-187z" />
    <glyph glyph-name="bracketleft" unicode="[" horiz-adv-x="768" 
d="M127 -272v1822h514v-241h-242v-1342h242v-239h-514zM160 -240h448v174h-241v1407h241v177h-448v-1758z" />
    <glyph glyph-name="backslash" unicode="\" horiz-adv-x="931" 
d="M-25 1450h275l706 -1583h-274zM25 1417l677 -1517h205l-678 1517h-204z" />
    <glyph glyph-name="bracketright" unicode="]" horiz-adv-x="768" 
d="M127 -33h242v1342h-242v241h514v-1822h-514v239zM160 -66v-174h448v1758h-448v-177h241v-1407h-241z" />
    <glyph glyph-name="asciicircum" unicode="^" horiz-adv-x="1263" 
d="M74 639l473 809h153l490 -809h-244l-321 535l-308 -535h-243zM131 672h166l328 567l342 -567h166l-453 743h-113z" />
    <glyph glyph-name="underscore" unicode="_" horiz-adv-x="1525" 
d="M129 16h1268v-159h-1268v159zM162 -16v-95h1202v95h-1202z" />
    <glyph glyph-name="grave" unicode="`" horiz-adv-x="538" 
d="M8 1567h316l200 -383h-241zM74 1534l225 -317h172l-168 317h-229z" />
    <glyph glyph-name="a" unicode="a" 
d="M66 528q0 121 43.5 228.5t119 184t181 121t225.5 44.5q97 0 186.5 -29.5t153.5 -83.5v82h252v-1091h-256l2 86q-142 -117 -338 -117q-160 0 -290.5 75.5t-204.5 207t-74 292.5zM98 528q0 -152 70 -276.5t193.5 -195t273.5 -70.5q238 0 371 168l-2 -138h190v1026h-186
v-129q-55 73 -156 116.5t-217 43.5q-150 0 -273.5 -71.5t-193.5 -196.5t-70 -277zM287 530q0 160 105 269.5t259 109.5q164 0 266.5 -105t102.5 -274q0 -170 -102 -275t-267 -105q-154 0 -259 110t-105 270zM319 530q0 -146 96 -247t236 -101q151 0 243.5 95.5t92.5 252.5
q0 155 -92.5 251t-243.5 96q-140 0 -236 -100.5t-96 -246.5z" />
    <glyph glyph-name="b" unicode="b" 
d="M150 -16v1421l251 41v-453q64 54 153.5 83.5t186.5 29.5q160 0 290.5 -75.5t205 -208t74.5 -294.5q0 -161 -74.5 -292.5t-205 -207t-290.5 -75.5q-196 0 -338 117l3 -86h-256zM182 16h191l-2 138q133 -168 370 -168q150 0 273.5 70.5t193.5 195t70 276.5t-70 277
t-193.5 196.5t-273.5 71.5q-115 0 -215.5 -43t-156.5 -117v496l-187 -33v-1360zM356 530q0 169 102.5 274t266.5 105q155 0 263 -110.5t108 -268.5t-108.5 -269t-262.5 -111q-165 0 -267 105t-102 275zM389 530q0 -157 92.5 -252.5t243.5 -95.5q141 0 239.5 101t98.5 247
q0 145 -98.5 246t-239.5 101q-151 0 -243.5 -96t-92.5 -251z" />
    <glyph glyph-name="c" unicode="c" horiz-adv-x="1132" 
d="M66 530q0 122 45.5 229t124 183t189.5 120t237 44q119 0 225 -36.5t170 -100.5v-234l-29 -10q-5 6 -14.5 16.5t-43.5 37t-73 47t-102.5 37t-132.5 16.5q-148 0 -248.5 -100.5t-100.5 -248.5q0 -159 100.5 -254.5t268.5 -95.5q68 0 131 11t104 26.5t73 31.5t46 27l15 11
l26 -13v-213q-67 -56 -179.5 -82t-215.5 -26q-279 0 -447.5 158t-168.5 419zM98 530q0 -248 158.5 -396t425.5 -148q94 0 196 22t166 70v166q-150 -97 -362 -97q-181 0 -291 105t-110 278q0 160 110.5 270.5t270.5 110.5q125 0 215.5 -42t146.5 -93v178q-61 55 -158.5 87
t-203.5 32q-243 0 -403.5 -155t-160.5 -388z" />
    <glyph glyph-name="d" unicode="d" 
d="M66 528q0 121 43.5 228.5t119 184t181 121t225.5 44.5q97 0 186.5 -29.5t153.5 -83.5v412l254 41v-1462h-258l2 86q-142 -117 -338 -117q-160 0 -290.5 75.5t-204.5 207t-74 292.5zM98 528q0 -152 70 -276.5t193.5 -195t273.5 -70.5q238 0 371 168l-2 -138h192v1393
l-188 -33v-463q-55 73 -156 116.5t-217 43.5q-150 0 -273.5 -71.5t-193.5 -196.5t-70 -277zM281 530q0 158 107.5 268.5t262.5 110.5q164 0 266.5 -105t102.5 -274q0 -170 -102 -275t-267 -105q-154 0 -262 111t-108 269zM313 530q0 -146 98.5 -247t239.5 -101
q151 0 243.5 95.5t92.5 252.5q0 155 -92.5 251t-243.5 96q-141 0 -239.5 -101t-98.5 -246z" />
    <glyph glyph-name="e" unicode="e" horiz-adv-x="1220" 
d="M66 530q0 121 45 228t123 183.5t187 120.5t232 44q141 0 256.5 -69t180.5 -189.5t65 -267.5v-119h-844q26 -132 120.5 -205.5t240.5 -73.5q51 0 101.5 6t90.5 16t76.5 22t63.5 23.5t46.5 21.5t30.5 16l11 6l16 -17v-198l-6 -12q-5 -5 -15 -12.5t-47.5 -27t-82.5 -34.5
t-123 -27t-166 -12q-267 0 -434.5 161t-167.5 416zM98 530q0 -242 158.5 -393t411.5 -151q92 0 169.5 12t125.5 31t72.5 32t39.5 25v164q-31 -20 -76 -39.5t-136.5 -40t-190.5 -20.5q-167 0 -273 91.5t-125 252.5h848v86q0 211 -134 352t-335 141q-156 0 -283.5 -71
t-199.5 -195.5t-72 -276.5zM285 633q1 24 10.5 57.5t35 75.5t62 77t97.5 59t135 24q75 0 133 -24t90 -58.5t53 -78t27.5 -75t7.5 -57.5h-651zM324 666h575q-6 38 -20.5 72t-44 72t-83.5 60.5t-126 22.5q-59 0 -108 -16t-81.5 -39.5t-56.5 -55.5t-36.5 -60t-18.5 -56z" />
    <glyph glyph-name="f" unicode="f" horiz-adv-x="1067" 
d="M45 741v213h225q5 243 131 387t336 144q65 0 121.5 -12t90.5 -29.5t58.5 -34.5t34.5 -29l9 -12l2 -10v-197l-29 -12l-11.5 11.5t-33 25.5t-53 32t-71 25.5t-87.5 11.5q-123 0 -182 -72.5t-62 -228.5h477v-213h-477v-757h-254v757h-225zM78 774h225v-758h189v758h477v148
h-477v16q0 176 64 261q67 89 212 89q135 0 252 -90v154q-8 11 -25 24.5t-49.5 32t-87.5 31t-121 12.5q-203 0 -321 -143q-113 -138 -113 -371v-16h-225v-148z" />
    <glyph glyph-name="g" unicode="g" horiz-adv-x="1320" 
d="M66 528q0 121 43.5 228.5t119 184t181 121t225.5 44.5q97 0 186.5 -29.5t153.5 -83.5v82h254l-4 -964q0 -280 -163 -434t-458 -154q-88 0 -165 11.5t-124.5 28t-82 33t-48.5 28.5l-14 11l-6 13v198l26 15q6 -4 18 -11.5t52 -26.5t83.5 -33t112.5 -26t140 -12
q366 0 375 316q-137 -115 -336 -115q-160 0 -290.5 75.5t-204.5 207t-74 292.5zM98 528q0 -152 70 -276.5t193.5 -195t273.5 -70.5q213 0 340 133l29 -13v-24q0 -180 -103.5 -271.5t-304.5 -91.5q-134 0 -236 31.5t-163 67.5v-162q15 -12 39.5 -25t72.5 -32t125.5 -31
t169.5 -12q282 0 435 144.5t153 410.5l4 931h-188v-129q-55 73 -156 116.5t-217 43.5q-150 0 -273.5 -71.5t-193.5 -196.5t-70 -277zM287 530q0 160 105 269.5t259 109.5q164 0 266.5 -105t102.5 -274q0 -170 -102 -275t-267 -105q-154 0 -259 110t-105 270zM319 530
q0 -146 96 -247t236 -101q151 0 243.5 95.5t92.5 252.5q0 155 -92.5 251t-243.5 96q-140 0 -236 -100.5t-96 -246.5z" />
    <glyph glyph-name="h" unicode="h" horiz-adv-x="1284" 
d="M147 -16v1421l254 41v-465q107 127 314 127q201 0 321.5 -124t120.5 -333v-667h-254v645q0 118 -58.5 184t-162.5 66q-125 0 -203 -78t-78 -205v-612h-254zM180 16h189v580q0 139 87.5 227t225.5 88q119 0 186.5 -75t67.5 -207v-613h188v635q0 195 -110.5 309.5
t-298.5 114.5q-69 0 -127.5 -16t-91.5 -38.5t-56.5 -44.5t-31.5 -38l-9 -16l-30 6v481l-189 -33v-1360z" />
    <glyph glyph-name="i" unicode="i" horiz-adv-x="579" 
d="M147 1335q0 60 41 102t101 42t101.5 -42t41.5 -102t-41.5 -100.5t-101.5 -40.5q-59 0 -100.5 41.5t-41.5 99.5zM172 -16v1093h254v-1093h-254zM180 1335q0 -46 31.5 -77t77.5 -31t78 31t32 77q0 47 -31.5 79t-78.5 32q-46 0 -77.5 -32.5t-31.5 -78.5zM205 16h188v1028
h-188v-1028z" />
    <glyph glyph-name="j" unicode="j" horiz-adv-x="548" 
d="M-240 -100l31 8q4 -6 11.5 -16.5t33 -37t53 -47t70 -37t86.5 -16.5q59 0 90 42.5t31 121.5v1159h254v-1140q0 -54 -8 -105t-31 -108.5t-59.5 -100t-100 -70.5t-145.5 -28q-66 0 -122.5 14t-90.5 34t-58 40.5t-33 34.5l-10 14l-2 8v230zM-207 -147v-179q9 -13 24.5 -27.5
t48.5 -37t88 -37t122 -14.5q75 0 132.5 25t90.5 63t53.5 91t27.5 100.5t7 99.5v1107h-188v-1126q0 -93 -40.5 -145t-113.5 -52q-79 0 -144 40.5t-108 91.5zM135 1335q0 60 40.5 102t100.5 42t102 -42t42 -102t-42 -100.5t-102 -40.5q-58 0 -99.5 41t-41.5 100zM168 1335
q0 -46 31 -77t77 -31t78.5 31.5t32.5 76.5q0 47 -32 79t-79 32q-45 0 -76.5 -32.5t-31.5 -78.5z" />
    <glyph glyph-name="k" unicode="k" horiz-adv-x="1179" 
d="M147 -16v1421l254 41v-725l424 354h338l-493 -413l565 -678h-328l-426 522l-80 -70v-452h-254zM180 16h189v437l116 98l439 -535h241l-540 650l448 376h-235l-469 -391v758l-189 -33v-1360z" />
    <glyph glyph-name="l" unicode="l" horiz-adv-x="548" 
d="M147 -16v1421l254 41v-1462h-254zM180 16h189v1393l-189 -33v-1360z" />
    <glyph glyph-name="m" unicode="m" horiz-adv-x="1927" 
d="M160 -16v1091h254v-86q96 119 280 119q223 0 334 -160q51 77 144 118.5t217 41.5q194 0 302.5 -121t108.5 -336v-667h-254v645q0 127 -46.5 188.5t-143.5 61.5q-109 0 -179.5 -79.5t-70.5 -203.5v-612h-254v645q0 127 -46.5 188.5t-143.5 61.5q-100 0 -169 -67.5
t-79 -176.5v-651h-254zM193 16h188v623q12 120 90.5 196t190.5 76q223 0 223 -282v-613h188v580q0 138 80 226.5t203 88.5q223 0 223 -282v-613h188v635q0 201 -99 312.5t-279 111.5q-137 0 -230.5 -50.5t-128.5 -143.5q-46 95 -131.5 144.5t-204.5 49.5q-57 0 -106 -13.5
t-78 -31t-52 -41t-32 -37.5t-14 -26l-31 6v110h-188v-1026z" />
    <glyph glyph-name="n" unicode="n" horiz-adv-x="1296" 
d="M160 -16v1091h254v-94q107 127 313 127q201 0 321.5 -124t120.5 -333v-667h-254v645q0 118 -58.5 184t-162.5 66q-125 0 -202.5 -78t-77.5 -205v-612h-254zM193 16h188v580q0 139 87.5 227t225.5 88q119 0 186.5 -75t67.5 -207v-613h189v635q0 195 -111 309.5t-299 114.5
q-69 0 -127 -16t-91.5 -38.5t-56.5 -44.5t-32 -38l-8 -16l-31 6v114h-188v-1026z" />
    <glyph glyph-name="o" unicode="o" horiz-adv-x="1323" 
d="M66 528q0 157 79.5 290t217 210.5t299.5 77.5t299 -77.5t216.5 -210.5t79.5 -290t-79.5 -289.5t-216.5 -209t-299 -76.5q-122 0 -232 45.5t-190 122t-127 183t-47 224.5zM98 528q0 -111 44.5 -211.5t120.5 -173t180 -115t219 -42.5q153 0 282.5 72t205 197t75.5 273
t-75.5 273.5t-205 198.5t-282.5 73t-283 -73t-205.5 -198.5t-75.5 -273.5zM279 528q0 160 111 269.5t272 109.5t271.5 -109.5t110.5 -269.5q0 -158 -110.5 -267t-271.5 -109t-272 109t-111 267zM311 528q0 -145 101.5 -244.5t249.5 -99.5t249 99.5t101 244.5q0 146 -101 246
t-249 100t-249.5 -100t-101.5 -246z" />
    <glyph glyph-name="p" unicode="p" 
d="M147 -451v1526h254v-82q64 54 153.5 83.5t186.5 29.5q160 0 290.5 -75.5t205 -208t74.5 -294.5q0 -161 -74.5 -292.5t-205 -207t-290.5 -75.5q-207 0 -340 121v-525h-254zM180 -418h189v576q132 -172 372 -172q150 0 273.5 70.5t193.5 195t70 276.5t-70 277t-193.5 196.5
t-273.5 71.5q-115 0 -215.5 -43t-156.5 -117v129h-189v-1460zM356 528q0 167 109.5 274t279.5 107q151 0 251 -109t100 -272t-100 -270.5t-251 -107.5q-170 0 -279.5 106t-109.5 272zM389 528q0 -152 99.5 -249t256.5 -97q137 0 227.5 98.5t90.5 247.5q0 151 -90.5 250
t-227.5 99q-157 0 -256.5 -97.5t-99.5 -251.5z" />
    <glyph glyph-name="q" unicode="q" horiz-adv-x="1370" 
d="M66 528q0 121 43.5 228.5t119 184t181 121t225.5 44.5q97 0 186.5 -29.5t153.5 -83.5v82h254v-1526h-254v525q-133 -121 -340 -121q-160 0 -290.5 75.5t-204.5 207t-74 292.5zM98 528q0 -152 70 -276.5t193.5 -195t273.5 -70.5q241 0 373 172v-576h188v1460h-188v-129
q-55 73 -156 116.5t-217 43.5q-150 0 -273.5 -71.5t-193.5 -196.5t-70 -277zM281 528q0 163 100 272t250 109q170 0 279.5 -107t109.5 -274q0 -166 -109.5 -272t-279.5 -106q-151 0 -250.5 107.5t-99.5 270.5zM313 528q0 -149 90.5 -247.5t227.5 -98.5q157 0 256.5 97
t99.5 249q0 154 -99.5 251.5t-256.5 97.5q-137 0 -227.5 -99t-90.5 -250z" />
    <glyph glyph-name="r" unicode="r" horiz-adv-x="839" 
d="M147 -16v1093h254v-155q61 89 177 139q110 47 242 47h16v-215h-15q-185 -1 -299 -95q-118 -98 -121 -268v-546h-254zM180 16h189v514q3 177 121 284t313 112v149q-144 -3 -255 -65t-149 -160l-30 6v188h-189v-1028z" />
    <glyph glyph-name="s" unicode="s" horiz-adv-x="894" 
d="M66 70v217l26 12q5 -5 15.5 -13t42.5 -28t65.5 -35.5t82.5 -28t95 -12.5q95 0 146 25.5t51 71.5q0 49 -41.5 84.5t-147.5 95.5q-35 20 -47 26.5t-43 25.5t-43.5 29l-37.5 30t-35.5 34.5t-26.5 37.5t-23 45t-12.5 50t-5.5 58q0 135 104.5 223t262.5 88q94 0 169 -23.5
t121 -54.5v-272q-29 52 -106 86.5t-158 34.5q-151 0 -151 -78q0 -35 31.5 -60.5t136.5 -86.5q13 -7 20.5 -11.5t19.5 -11.5t23 -13q59 -34 97 -62.5t70 -67t47 -86t15 -109.5q0 -154 -118 -246t-316 -92q-52 0 -104.5 10.5t-90 26t-68 31t-45.5 25.5l-15 11zM98 78
q148 -92 297 -92q184 0 293 82.5t109 222.5q0 56 -13 98.5t-42.5 77t-64.5 61t-93 60.5q-21 12 -51 29t-45 26t-37.5 22t-33 20.5t-25.5 18t-21.5 18t-15 17.5t-11.5 18.5t-5.5 19t-2.5 22.5q0 54 48 82t136 28q61 0 123.5 -19.5t108.5 -51.5v172q-111 63 -258 63
q-146 0 -240 -78t-94 -200q0 -35 8 -66t18 -53.5t33 -47.5t38 -39t50 -36.5t52 -32t59 -33.5q109 -61 157 -105t48 -103q0 -63 -60 -96t-170 -33q-87 0 -165.5 33t-129.5 71v-176z" />
    <glyph glyph-name="t" unicode="t" horiz-adv-x="1028" 
d="M-35 891l690 569v-356h363v-213h-363v-907h-254v907h-436zM55 924h379v-908h189v908h362v147h-362v320z" />
    <glyph glyph-name="u" unicode="u" horiz-adv-x="1249" 
d="M127 428v647h254v-653v-14t4 -34t11.5 -48t25.5 -51.5t42.5 -48.5t66.5 -34t94 -14t94 13.5t66.5 35t42.5 47.5t25.5 52t11 47.5t3.5 34.5v14v653h254v-647q0 -477 -497 -477q-498 0 -498 477zM160 428q0 -89 19.5 -161t48.5 -117.5t74 -78.5t83.5 -49t90 -25.5t81 -11
t68.5 -1.5t68.5 1.5t81 11t90 25.5t83.5 49t74 78.5t48.5 117.5t19.5 161v614h-189v-620v-16t-4.5 -38.5t-13 -55t-28.5 -58.5t-48.5 -54.5t-75.5 -38.5t-106 -16t-106 15.5t-75.5 39.5t-49 53.5t-29 59.5t-13 54t-4.5 39v16v620h-188v-614z" />
    <glyph glyph-name="v" unicode="v" horiz-adv-x="1126" 
d="M-16 1075h268l313 -669l309 669h269l-580 -1196zM37 1042l526 -1089l527 1089h-195l-330 -714l-334 714h-194z" />
    <glyph glyph-name="w" unicode="w" horiz-adv-x="1529" 
d="M39 1075h266l201 -579l256 649l278 -651l185 581h266l-430 -1204l-301 709l-289 -709zM84 1042l387 -1081l289 705l297 -705l389 1081h-197l-205 -643l-282 660l-260 -658l-221 641h-197z" />
    <glyph glyph-name="x" unicode="x" horiz-adv-x="1275" 
d="M16 -16l469 585l-428 506h310l280 -342l287 342h285l-426 -522l467 -569h-310l-315 403l-320 -403h-299zM86 16h213l336 424l332 -424h223l-438 537l397 489h-199l-303 -362l-297 362h-223l399 -473z" />
    <glyph glyph-name="y" unicode="y" horiz-adv-x="1200" 
d="M14 1075h269l317 -680l318 680h268l-731 -1517h-273l285 565zM68 1042l436 -919l-268 -533h198l699 1452h-195l-338 -725l-338 725h-194z" />
    <glyph glyph-name="z" unicode="z" horiz-adv-x="1179" 
d="M86 -16v174l649 694h-608v225h946v-194l-631 -674h652v-225h-1008zM119 16h942v160h-692l671 719v149h-880v-159h649l-690 -740v-129z" />
    <glyph glyph-name="braceleft" unicode="{" horiz-adv-x="749" 
d="M127 528v224q77 -4 92 54t14 319v100q0 170 93.5 248.5t296.5 78.5v-221q-93 3 -124.5 -34t-31.5 -154q0 -32 0.5 -80t1 -77t0 -68.5t-3 -64.5t-7 -56t-13 -51.5t-20 -42t-28.5 -36.5t-39 -26q24 -13 42.5 -32.5t30.5 -40t20 -53t11.5 -58t5 -70.5t1 -75t-1 -85.5
t-0.5 -89.5q0 -117 31.5 -154t124.5 -34v-221q-203 0 -296.5 78.5t-93.5 248.5q0 315 -3 356q-6 87 -35 106q-20 13 -68 11zM160 561q62 -4 83 -50q23 -48 24 -218q0 -35 -1 -119v-119q0 -151 76 -220t248 -75v156q-89 3 -122.5 51.5t-33.5 169.5q0 35 0.5 86.5t1 80
t-0.5 70t-3.5 64.5t-8 54t-14.5 48t-23 37t-32.5 31t-43.5 20t-56 13q31 4 56 12.5t43.5 19.5t32.5 30.5t23 36.5t14.5 47.5t8 53.5t3.5 64.5t0.5 70t-1 80.5t-0.5 87q0 121 33.5 169.5t122.5 51.5v156q-172 -6 -248 -75t-76 -220q0 -295 -2 -331q-6 -119 -43 -152
q-23 -20 -61 -23v-158z" />
    <glyph glyph-name="bar" unicode="|" horiz-adv-x="483" 
d="M135 -119v1649h211v-1649h-211zM168 -86h145v1583h-145v-1583z" />
    <glyph glyph-name="braceright" unicode="}" horiz-adv-x="749" 
d="M127 -51q93 -3 124.5 34t31.5 154q0 35 -1 90t-1 85.5t1 74.5t5 70t11.5 58.5t19.5 53t30.5 40t42.5 32.5q-24 13 -42.5 32t-30.5 39t-19.5 52.5t-11.5 58.5t-5 70t-1 74.5t1 85.5t1 90q0 117 -31.5 154t-124.5 34v221q203 0 296 -78.5t93 -248.5v-92q-1 -266 14 -325.5
t93 -55.5v-224q-79 3 -93.5 -48.5t-13.5 -313.5v-111q0 -170 -93 -248.5t-296 -78.5v221zM160 -84v-156q172 6 247.5 75t75.5 220q0 303 2 344q7 111 43 141q21 18 62 21v158q-76 6 -92 79t-15 320v107q0 151 -75.5 220t-247.5 75v-156q88 -3 121.5 -51.5t33.5 -169.5
q0 -34 -0.5 -86.5t-1 -81t0.5 -70t4 -64t8.5 -53.5t14.5 -48t23 -37t32.5 -30.5t43.5 -19t56 -12.5q-31 -4 -56 -13t-43.5 -20t-32.5 -31t-23 -37t-14.5 -48t-8.5 -53.5t-4 -64.5t-0.5 -70t1 -80.5t0.5 -86.5q0 -121 -33.5 -169.5t-121.5 -51.5z" />
    <glyph glyph-name="asciitilde" unicode="~" horiz-adv-x="1120" 
d="M84 481q22 118 93.5 183t178.5 65q89 0 213 -57q5 -2 21.5 -9.5t23 -10.5t20 -9t21.5 -8.5t18.5 -5.5t19 -4.5t16.5 -1.5q16 0 26.5 4.5t17 16t9.5 20t7 27.5t7 28l260 -70q-25 -120 -95 -184t-177 -64q-30 0 -67 9t-63.5 18t-82.5 31q-8 2 -26 9.5t-21 8.5
q-68 31 -92 31q-16 0 -26.5 -4.5t-17.5 -16t-10 -19.5t-7.5 -28t-6.5 -28zM123 506l196 -53q5 19 9.5 31t14.5 27t27.5 22.5t41.5 7.5q30 0 106 -33q12 -7 45 -21q138 -53 201 -53q88 0 147.5 48.5t85.5 142.5l-196 53q-5 -19 -9.5 -31t-14.5 -27t-27 -22.5t-41 -7.5
q-44 0 -152 53q-116 53 -201 53q-89 0 -148.5 -49t-84.5 -141z" />
    <glyph glyph-name="uni00A0" unicode="&#xa0;" horiz-adv-x="532" 
 />
    <glyph glyph-name="exclamdown" unicode="&#xa1;" horiz-adv-x="704" 
d="M172 924q0 76 52 128t128 52q75 0 127.5 -52.5t52.5 -127.5q0 -74 -53.5 -127.5t-126.5 -53.5q-75 0 -127.5 53t-52.5 128zM205 924q0 -63 42 -105.5t105 -42.5q62 0 105 43t43 105q0 63 -42.5 105t-105.5 42q-64 0 -105.5 -41.5t-41.5 -105.5zM217 -375v930h272v-930
h-272zM250 -342h207v864h-207v-864z" />
    <glyph glyph-name="cent" unicode="&#xa2;" horiz-adv-x="1024" 
d="M152 537q0 174 79.5 304t231.5 203v347h248v-275q59 10 147 10v-239q-65 1 -127 -9.5t-121.5 -37t-103.5 -66.5t-71 -101t-27 -136t27 -135.5t71 -99t103.5 -63.5t121.5 -35t127 -9v-244q-82 0 -145 8v-231h-250v303q-152 72 -231.5 201.5t-79.5 304.5zM184 537
q0 -172 80 -296t232 -190v-291h184v236q70 -9 145 -12v178q-65 2 -127 15.5t-121.5 42.5t-103.5 70.5t-71 105t-27 141.5t27 142t71 107t103.5 73.5t121.5 44.5t127 16v174q-77 -3 -147 -17v281h-182v-334q-152 -68 -232 -192.5t-80 -294.5z" />
    <glyph glyph-name="sterling" unicode="&#xa3;" horiz-adv-x="1314" 
d="M53 618v244h215v148q0 125 64.5 233t174 172t236.5 64q188 0 322 -135t127 -320h-254q6 78 -48.5 135.5t-135.5 57.5q-72 0 -124.5 -46t-60.5 -114h2v-195h385v-244h-387v-391h645l-2 -243h-944v634h-215zM86 651h215v-635h879l2 179h-645v456h387v178h-385v195h14
l-16 16q0 86 64 147.5t153 61.5q86 0 147.5 -55t69.5 -137h188q-8 161 -129 275t-287 114q-180 0 -311 -129.5t-131 -306.5v-181h-215v-178z" />
    <glyph glyph-name="currency" unicode="&#xa4;" horiz-adv-x="1290" 
d="M162 336l90 90q-62 103 -62 221t62 221l-90 90l172 172l94 -94q102 54 217 54t217 -54l94 94l172 -172l-90 -90q62 -103 62 -221t-62 -221l90 -90l-172 -172l-96 94q-105 -51 -215 -51t-215 51l-96 -94zM207 336l127 -127l90 90q103 -59 221 -59t221 59l90 -90l127 127
l-86 86q70 104 70 225q0 122 -70 225l86 86l-127 127l-90 -90q-100 62 -221 62t-221 -62l-90 90l-127 -127l86 -86q-70 -103 -70 -225q0 -121 70 -225zM399 647q0 101 71.5 171.5t174.5 70.5t174.5 -70.5t71.5 -171.5q0 -100 -71.5 -169.5t-174.5 -69.5t-174.5 69.5
t-71.5 169.5zM432 647q0 -86 62 -146.5t151 -60.5t151 60.5t62 146.5q0 88 -62 148.5t-151 60.5t-151 -60.5t-62 -148.5z" />
    <glyph glyph-name="yen" unicode="&#xa5;" horiz-adv-x="1337" 
d="M10 1407h305l377 -578l375 578h307l-467 -688h197v-242h-283v-67h283v-242h-283v-184h-258v184h-327v242h327v67h-327v242h241zM72 1374l467 -688h-271v-176h328v-133h-328v-176h328v-185h192v185h283v176h-283v133h283v176h-225l467 688h-230l-391 -606l-393 606h-227z
" />
    <glyph glyph-name="brokenbar" unicode="&#xa6;" horiz-adv-x="481" 
d="M135 -272v761h211v-761h-211zM135 768v762h211v-762h-211zM168 -240h145v697h-145v-697zM168 801h145v696h-145v-696z" />
    <glyph glyph-name="section" unicode="&#xa7;" horiz-adv-x="997" 
d="M66 -90v217l26 12q5 -5 15.5 -12.5t42.5 -27.5t65.5 -35.5t82.5 -28t95 -12.5q95 0 146 25t51 71q0 27 -23 56t-46.5 47t-71.5 50q-6 5 -19.5 14.5t-19.5 14.5q-102 73 -139 109q-103 101 -103 219q0 104 67.5 176t184.5 94q-81 63 -115.5 116t-34.5 115
q0 139 103.5 228.5t263.5 89.5q59 0 119.5 -18t91.5 -36l31 -18l8 -14v-176l-25 -15q-13 8 -35.5 19t-80.5 30t-103 19q-59 0 -91 -23t-32 -65q0 -34 36.5 -67.5t107.5 -79.5l49 -35q40 -28 59 -42t55.5 -48t55 -63.5t34 -75t15.5 -95.5q0 -92 -65.5 -169.5t-155.5 -94.5
q118 -93 118 -238q0 -165 -115 -257.5t-319 -92.5q-83 0 -163.5 26.5t-119.5 52.5l-40 26zM98 -82q148 -92 297 -92q191 0 296.5 83t105.5 234q0 85 -46.5 150.5t-142.5 120.5q65 -22 134 8t113 92.5t44 130.5q0 23 -4 45.5t-8 39.5t-16 37t-18 31.5t-24.5 30t-24.5 25.5
t-28.5 25t-27 21.5t-29.5 22t-27 19.5q-8 7 -26.5 20t-20.5 15q-36 24 -58 39.5t-48.5 38.5t-39 47t-12.5 49q0 57 42 89t114 32q88 0 211 -60v142q-109 61 -217 61q-148 0 -241 -79.5t-93 -205.5q0 -64 46 -120.5t159 -135.5q-140 -1 -223.5 -68.5t-83.5 -176.5
q0 -27 6.5 -53t14.5 -45.5t26 -42.5t29 -36.5t37 -35.5t37 -30.5t41 -31l38 -28.5l39 -27q34 -23 55 -39t47 -40t39 -49.5t13 -51.5q0 -63 -60 -96t-170 -33q-87 0 -165.5 33t-129.5 71v-176zM385 649q0 57 42 89t114 32q77 0 130.5 -43t53.5 -106q0 -83 -85 -113t-170 11.5
t-85 129.5zM418 649q0 -67 68.5 -99.5t137 -11.5t68.5 83q0 50 -43.5 83t-107.5 33q-59 0 -91 -23t-32 -65z" />
    <glyph glyph-name="dieresis" unicode="&#xa8;" horiz-adv-x="770" 
d="M57 1337q0 54 38.5 92.5t92.5 38.5t91.5 -38.5t37.5 -92.5q0 -53 -38.5 -91t-90.5 -38q-54 0 -92.5 37.5t-38.5 91.5zM90 1337q0 -40 29 -68t69 -28t68.5 28t28.5 68t-28.5 69.5t-68.5 29.5q-41 0 -69.5 -29t-28.5 -70zM451 1337q0 54 38.5 92.5t92.5 38.5t91.5 -38.5
t37.5 -92.5q0 -53 -38.5 -91t-90.5 -38q-54 0 -92.5 37.5t-38.5 91.5zM483 1337q0 -39 29.5 -67.5t69.5 -28.5t68 28t28 68t-28.5 69.5t-67.5 29.5q-41 0 -70 -29t-29 -70z" />
    <glyph glyph-name="copyright" unicode="&#xa9;" horiz-adv-x="1738" 
d="M123 592q0 153 59 291t158.5 238t237.5 159t290 59t290.5 -59t238.5 -159.5t159.5 -238.5t59.5 -290q0 -203 -100 -374.5t-272 -271.5t-376 -100q-152 0 -290 59t-237.5 159t-158.5 238t-59 290zM156 592q0 -146 56 -278t151.5 -227t227 -151.5t277.5 -56.5
q145 0 277.5 56.5t228.5 152t152.5 227.5t56.5 277q0 146 -56.5 278t-152.5 228t-228 152.5t-278 56.5q-145 0 -276.5 -56.5t-227 -152.5t-152 -228.5t-56.5 -277.5zM262 592q0 166 81 306t220.5 221t304.5 81t305.5 -81.5t222 -221.5t81.5 -305t-81 -304.5t-221.5 -220.5
t-306.5 -81q-165 0 -304.5 81t-220.5 220.5t-81 304.5zM295 592q0 -157 76 -289t208 -208.5t289 -76.5t289.5 77t209.5 209t77 288q0 157 -77 289.5t-209.5 209t-289.5 76.5q-117 0 -223 -45.5t-182.5 -122t-122 -183t-45.5 -224.5zM420 592q0 197 134.5 328t338.5 131
q96 0 180 -29.5t135 -81.5v-178l-28 -10q-4 5 -11.5 13t-34 28.5t-57 36.5t-80.5 29t-104 13q-116 0 -198.5 -82.5t-82.5 -197.5q0 -125 82.5 -203t214.5 -78q53 0 102 8.5t81.5 21t57.5 25t36 20.5l12 9l27 -12v-162q-53 -45 -144 -66.5t-172 -21.5q-222 0 -355.5 126
t-133.5 333zM453 592q0 -193 124.5 -309.5t331.5 -116.5q72 0 152 18t131 54v114q-116 -73 -283 -73q-144 0 -236.5 88t-92.5 225q0 129 92 221t221 92q96 0 167.5 -31t115.5 -71v123q-47 43 -123.5 67.5t-159.5 24.5q-191 0 -315.5 -121t-124.5 -305z" />
    <glyph glyph-name="ordfeminine" unicode="&#xaa;" horiz-adv-x="792" 
d="M86 791q0 130 85.5 217.5t213.5 87.5q83 0 133 -41v24h189l-2 -575h-189v24q-47 -41 -131 -41q-127 0 -213 87.5t-86 216.5zM119 791q0 -116 76 -193.5t190 -77.5q48 0 85.5 17t49.5 45l31 -7l-2 -38h123l2 510h-123v-35l-31 -6q-12 25 -50 41t-85 16q-114 0 -190 -77.5
t-76 -194.5zM244 793q0 66 43 110.5t106 44.5q68 0 111 -43t43 -112q0 -70 -43 -114t-111 -44q-63 0 -106 46t-43 112zM276 793q0 -53 34 -89t83 -36q55 0 88 34t33 91q0 55 -33.5 88.5t-87.5 33.5q-50 0 -83.5 -35t-33.5 -87z" />
    <glyph glyph-name="guillemotleft" unicode="&#xab;" horiz-adv-x="1032" 
d="M53 541l279 413h280l-276 -413l276 -435h-280zM94 541l254 -402h203l-256 402l256 381h-203zM442 541l279 413h280l-276 -413l276 -435h-280zM483 541l254 -402h203l-256 402l256 381h-203z" />
    <glyph glyph-name="logicalnot" unicode="&#xac;" horiz-adv-x="1110" 
d="M86 485v242h938v-541h-272v299h-666zM119 518h665v-299h207v475h-872v-176z" />
    <glyph glyph-name="uni00AD" unicode="&#xad;" horiz-adv-x="1228" 
d="M129 483v242h795v-242h-795zM162 516h729v176h-729v-176z" />
    <glyph glyph-name="registered" unicode="&#xae;" horiz-adv-x="1738" 
d="M123 592q0 153 59 291t158.5 238t237.5 159t290 59t290.5 -59t238.5 -159.5t159.5 -238.5t59.5 -290q0 -203 -100 -374.5t-272 -271.5t-376 -100q-152 0 -290 59t-237.5 159t-158.5 238t-59 290zM156 592q0 -146 56 -278t151.5 -227t227 -151.5t277.5 -56.5
q145 0 277.5 56.5t228.5 152t152.5 227.5t56.5 277q0 146 -56.5 278t-152.5 228t-228 152.5t-278 56.5q-145 0 -276.5 -56.5t-227 -152.5t-152 -228.5t-56.5 -277.5zM262 592q0 166 81 306t220.5 221t304.5 81t305.5 -81.5t222 -221.5t81.5 -305t-81 -304.5t-221.5 -220.5
t-306.5 -81q-165 0 -304.5 81t-220.5 220.5t-81 304.5zM295 592q0 -157 76 -289t208 -208.5t289 -76.5q107 0 205 37.5t174 104.5h-168l-159 280h-232v-280h-190v858h405q173 0 258.5 -71.5t85.5 -217.5q0 -80 -40 -143t-115 -101l182 -301q81 79 125.5 184.5t44.5 223.5
q0 157 -77 289.5t-209.5 209t-289.5 76.5q-117 0 -223 -45.5t-182.5 -122t-122 -183t-45.5 -224.5zM530 193h125v280h285l160 -280h133l-189 307q83 32 126.5 91.5t43.5 137.5q0 132 -75 194t-236 62h-373v-792zM655 575v304h244q96 0 140 -36t44 -114q0 -154 -184 -154
h-244zM688 608h211q79 0 115.5 29t36.5 92t-34.5 90t-117.5 27h-211v-238z" />
    <glyph glyph-name="macron" unicode="&#xaf;" horiz-adv-x="608" 
d="M4 1214v218h600v-218h-600zM37 1247h534v152h-534v-152z" />
    <glyph glyph-name="degree" unicode="&#xb0;" horiz-adv-x="651" 
d="M41 1204q0 119 84 204t201 85q118 0 203 -85t85 -204q0 -117 -84.5 -200.5t-203.5 -83.5q-117 0 -201 83.5t-84 200.5zM74 1204q0 -104 74 -178t178 -74q106 0 181 74t75 178q0 106 -75 181t-181 75q-104 0 -178 -75t-74 -181zM170 1204q0 65 46.5 112.5t109.5 47.5
q64 0 111.5 -47.5t47.5 -112.5q0 -63 -47 -109t-112 -46q-63 0 -109.5 46t-46.5 109zM203 1204q0 -51 36 -87t87 -36q53 0 90 36t37 87q0 52 -37.5 89.5t-89.5 37.5q-51 0 -87 -37t-36 -90z" />
    <glyph glyph-name="plusminus" unicode="&#xb1;" horiz-adv-x="1110" 
d="M86 -16v241h938v-241h-938zM86 604v244h332v227h272v-227h334v-244h-334v-213h-272v213h-332zM119 16h872v177h-872v-177zM119 637h332v-213h206v213h334v178h-334v227h-206v-227h-332v-178z" />
    <glyph glyph-name="uni00B2" unicode="&#xb2;" horiz-adv-x="653" 
d="M47 733l219 266q-70 25 -113.5 85t-43.5 133q0 95 70.5 163t168.5 68t169 -68t71 -163q0 -86 -56 -148l-145 -168h197v-168h-537zM117 766h434v102h-234l191 222q47 53 47 127q0 82 -61 140t-146 58t-146 -58t-61 -140q0 -74 53.5 -132t131.5 -65zM252 1217q0 40 28 68
t68 28t68 -28t28 -68t-28 -68.5t-68 -28.5q-41 0 -68.5 28t-27.5 69zM285 1217q0 -28 17.5 -46t45.5 -18t46 18t18 46q0 26 -19 44.5t-45 18.5q-28 0 -45.5 -17.5t-17.5 -45.5z" />
    <glyph glyph-name="uni00B3" unicode="&#xb3;" horiz-adv-x="610" 
d="M66 967h178q-6 -35 11.5 -58.5t49.5 -23.5q28 0 46 17.5t18 45.5q0 26 -19 45t-45 19h-80l94 229h-225v168h455l-117 -281q54 -23 83.5 -70t29.5 -110q0 -95 -71 -163t-169 -68q-103 0 -174 74t-65 176zM98 934q6 -78 65.5 -131t141.5 -53q86 0 146.5 57.5t60.5 140.5
q0 62 -32.5 103.5t-92.5 56.5l113 268h-373v-102h242l-95 -230h31q40 0 68 -28t28 -68t-28 -68t-68 -28q-37 0 -63 23.5t-31 58.5h-113z" />
    <glyph glyph-name="acute" unicode="&#xb4;" horiz-adv-x="538" 
d="M14 1184l201 383h315l-274 -383h-242zM68 1217h172l225 317h-229z" />
    <glyph glyph-name="mu" unicode="&#xb5;" horiz-adv-x="1386" 
d="M106 -459v1534h254v-698q7 -97 70.5 -148t173.5 -51q61 0 107 15.5t71 37.5t40.5 52.5t20 54.5t5.5 49v688h254v-653v-14v-39t2.5 -37t7 -37t13 -32t21.5 -30t32.5 -23.5t45 -18.5t60.5 -10t78 -3v-227h-63.5t-63 2.5t-68.5 7.5t-63 15t-64 24t-54 36.5t-50 51.5
q-113 -137 -332 -137q-145 0 -244 51v-461h-254zM139 -426h189v487q104 -77 276 -77q120 0 200 39t132 124q20 -37 47 -65.5t60 -45.5t65 -28t73.5 -16t72.5 -6.5t75 -1.5v161q-75 2 -127 20.5t-77.5 41t-39 64t-15 66.5t-1.5 71v14v620h-188v-655q-1 -27 -6.5 -54
t-23.5 -62.5t-46.5 -62t-80.5 -45t-120 -18.5q-123 0 -195 59.5t-81 168.5v669h-189v-1468z" />
    <glyph glyph-name="paragraph" unicode="&#xb6;" horiz-adv-x="1353" 
d="M76 954q0 209 129 331t350 122h631v-1423h-254v1181h-139v-1181h-254v551q-214 5 -338.5 117t-124.5 302zM109 954q0 -185 123.5 -288t338.5 -99v-551h189v1182h205v-1182h188v1358h-598q-209 0 -327.5 -111.5t-118.5 -308.5z" />
    <glyph glyph-name="periodcentered" unicode="&#xb7;" horiz-adv-x="696" 
d="M168 709q0 75 52.5 127.5t127.5 52.5q74 0 127 -53.5t53 -126.5q0 -75 -52.5 -128t-127.5 -53q-76 0 -128 52t-52 129zM201 709q0 -65 41.5 -106.5t105.5 -41.5q63 0 105.5 42.5t42.5 105.5q0 61 -43 104t-105 43q-63 0 -105 -42t-42 -105z" />
    <glyph glyph-name="cedilla" unicode="&#xb8;" horiz-adv-x="288" 
d="M-16 -307q52 -3 87 13.5t35 43.5q0 24 -25.5 39.5t-50.5 18.5l-26 4l-14 20l43 156h180l-37 -119q19 -6 37.5 -15t41 -25t36.5 -42.5t14 -58.5q0 -89 -86.5 -139.5t-234.5 -47.5v152zM16 -340v-86q119 3 187.5 44t68.5 110q0 25 -12.5 46t-30 32.5t-35 19.5t-30.5 11
l-12 3l-13 21l29 94h-111l-30 -113q24 -4 46.5 -12.5t44 -29.5t21.5 -50q0 -36 -34 -60.5t-89 -29.5z" />
    <glyph glyph-name="uni00B9" unicode="&#xb9;" horiz-adv-x="616" 
d="M66 731v166h153v348h-153v164h350v-512h135v-166h-485zM98 764h420v100h-135v512h-285v-98h154v-414h-154v-100z" />
    <glyph glyph-name="ordmasculine" unicode="&#xba;" horiz-adv-x="798" 
d="M86 795q0 127 91 216t222 89q129 0 221.5 -89.5t92.5 -215.5q0 -124 -92.5 -213.5t-221.5 -89.5q-130 0 -221.5 88.5t-91.5 214.5zM119 795q0 -113 81.5 -192t198.5 -79t199 79t82 192q0 114 -82 193t-199 79t-198.5 -79t-81.5 -193zM242 795q0 66 45.5 111.5t111.5 45.5
t112 -45.5t46 -111.5q0 -64 -46 -109t-112 -45t-111.5 44.5t-45.5 109.5zM274 795q0 -52 35.5 -86.5t89.5 -34.5q53 0 89 35t36 86q0 53 -36 89t-89 36q-54 0 -89.5 -35.5t-35.5 -89.5z" />
    <glyph glyph-name="guillemotright" unicode="&#xbb;" horiz-adv-x="847" 
d="M31 106l276 435l-276 413h280l279 -413l-279 -435h-280zM92 139h203l254 402l-254 381h-203l256 -381zM420 106l276 435l-276 413h280l279 -413l-279 -435h-280zM481 139h203l254 402l-254 381h-203l256 -381z" />
    <glyph glyph-name="onequarter" unicode="&#xbc;" horiz-adv-x="1304" 
d="M66 731v166h153v348h-153v164h350v-512h135v-166h-485zM98 764h420v100h-135v512h-285v-98h154v-414h-154v-100zM121 -133l913 1583h217l-913 -1583h-217zM178 -100h139l877 1517h-139zM659 207l269 477h202l-165 -311h235v-389h-207v223h-334zM717 240h309v-224h141v324
h-256l166 311h-129z" />
    <glyph glyph-name="onehalf" unicode="&#xbd;" horiz-adv-x="1402" 
d="M66 731v166h153v348h-153v164h350v-512h135v-166h-485zM98 764h420v100h-135v512h-285v-98h154v-414h-154v-100zM143 -133l914 1583h217l-914 -1583h-217zM201 -100h139l877 1517h-140zM797 -14l219 266q-70 25 -114 84.5t-44 132.5q0 95 71 163t169 68t168.5 -68
t70.5 -163q0 -86 -55 -147l-145 -168h196v-168h-536zM866 18h434v103h-233l190 221q48 54 48 127q0 82 -61 140.5t-146 58.5t-146 -58.5t-61 -140.5q0 -74 53.5 -132t130.5 -65zM1001 469q0 40 28.5 68t68.5 28t68 -28t28 -68t-28 -68t-68 -28q-41 0 -69 27.5t-28 68.5z
M1034 469q0 -28 18 -45.5t46 -17.5t45.5 17.5t17.5 45.5q0 26 -18.5 44.5t-44.5 18.5q-28 0 -46 -17.5t-18 -45.5z" />
    <glyph glyph-name="threequarters" unicode="&#xbe;" horiz-adv-x="1337" 
d="M66 934h208q-7 -39 16 -63.5t66 -24.5q38 0 60 19t22 53q0 130 -180 90l111 229h-256v170h503l-135 -279q72 -23 119 -82t47 -128q0 -107 -81 -173.5t-210 -66.5q-134 0 -215 71t-75 185zM98 901q8 -86 78 -138t180 -52q117 0 187.5 56.5t70.5 150.5q0 68 -52.5 123.5
t-127.5 64.5l129 268h-418v-104h277l-107 -219q76 5 116 -29t40 -104q0 -46 -32 -75.5t-83 -29.5q-47 0 -78 24t-36 64h-144zM154 -133l913 1583h217l-913 -1583h-217zM211 -100h139l877 1517h-140zM686 209l268 477h203l-166 -311h236v-389h-207v223h-334zM743 242h310
v-224h141v324h-256l166 311h-129z" />
    <glyph glyph-name="questiondown" unicode="&#xbf;" horiz-adv-x="1083" 
d="M238 78q0 120 62 225t169 166v168h254v-350q-95 6 -160 -55t-65 -154t65 -154t160 -55v-244q-98 -3 -188 32t-155 96t-103.5 146t-38.5 179zM270 78q0 -169 122.5 -291.5t297.5 -128.5v178q-96 6 -160.5 75t-64.5 167t64.5 166.5t160.5 74.5v285h-188v-155
q-107 -54 -169.5 -154t-62.5 -217zM422 924q0 75 52.5 127.5t127.5 52.5q76 0 128 -52t52 -128q0 -75 -52.5 -128t-127.5 -53q-73 0 -126.5 53.5t-53.5 127.5zM455 924q0 -62 43 -105t104 -43q63 0 105.5 42.5t42.5 105.5q0 64 -41.5 105.5t-106.5 41.5q-63 0 -105 -42
t-42 -105z" />
    <glyph glyph-name="Agrave" unicode="&#xc0;" horiz-adv-x="1542" 
d="M18 -16l633 1423h240l633 -1423h-295l-133 329h-650l-133 -329h-295zM68 16h225l133 330h690l133 -330h226l-605 1358h-198zM377 1898h315l201 -382h-242zM442 1866l226 -318h172l-168 318h-230zM496 522l276 649l275 -649h-551zM545 555h452l-225 535z" />
    <glyph glyph-name="Aacute" unicode="&#xc1;" horiz-adv-x="1542" 
d="M18 -16l633 1423h240l633 -1423h-295l-133 329h-650l-133 -329h-295zM68 16h225l133 330h690l133 -330h226l-605 1358h-198zM496 522l276 649l275 -649h-551zM545 555h452l-225 535zM641 1516l201 382h315l-274 -382h-242zM694 1548h172l226 318h-230z" />
    <glyph glyph-name="Acircumflex" unicode="&#xc2;" horiz-adv-x="1542" 
d="M18 -16l633 1423h240l633 -1423h-295l-133 329h-650l-133 -329h-295zM68 16h225l133 330h690l133 -330h226l-605 1358h-198zM406 1516l235 382h248l235 -382h-243l-115 157l-117 -157h-243zM463 1548h170l133 183l131 -183h170l-195 318h-215zM496 522l276 649l275 -649
h-551zM545 555h452l-225 535z" />
    <glyph glyph-name="Atilde" unicode="&#xc3;" horiz-adv-x="1542" 
d="M18 -16l633 1423h240l633 -1423h-295l-133 329h-650l-133 -329h-295zM68 16h225l133 330h690l133 -330h226l-605 1358h-198zM406 1587q17 117 70.5 181.5t135.5 64.5q78 0 156 -53h12v-2h-14l10 -4q72 -52 98 -52q11 0 18 5.5t11.5 17t7 22.5t5.5 29t6 29l200 -74
q-17 -117 -71 -181.5t-136 -64.5q-75 0 -155 54h-12v2h14l-10 4q-70 51 -99 51q-11 0 -18 -5.5t-11 -17t-6.5 -22.5t-5.5 -29t-6 -29zM442 1608l140 -49q4 25 9.5 42t21 32.5t40.5 15.5q38 0 115 -56h12v-2h-14l10 -2q68 -51 139 -51q63 0 107 50t63 143l-139 49
q-14 -90 -72 -90q-39 0 -114 55h-12v2h14l-10 2q-68 51 -140 51q-63 0 -107 -49.5t-63 -142.5zM496 522l276 649l275 -649h-551zM545 555h452l-225 535z" />
    <glyph glyph-name="Adieresis" unicode="&#xc4;" horiz-adv-x="1542" 
d="M18 -16l633 1423h240l633 -1423h-295l-133 329h-650l-133 -329h-295zM68 16h225l133 330h690l133 -330h226l-605 1358h-198zM438 1669q0 54 38.5 92.5t92.5 38.5t91.5 -38.5t37.5 -92.5q0 -53 -38 -91t-91 -38q-54 0 -92.5 37.5t-38.5 91.5zM471 1669q0 -40 29 -68
t69 -28t68.5 28t28.5 68t-28.5 69t-68.5 29q-41 0 -69.5 -28.5t-28.5 -69.5zM496 522l276 649l275 -649h-551zM545 555h452l-225 535zM831 1669q0 54 39 92.5t93 38.5t91.5 -38.5t37.5 -92.5q0 -53 -38 -91t-91 -38q-54 0 -93 37.5t-39 91.5zM864 1669q0 -39 29.5 -67.5
t69.5 -28.5t68 28t28 68t-28 69t-68 29q-41 0 -70 -28.5t-29 -69.5z" />
    <glyph glyph-name="Aring" unicode="&#xc5;" horiz-adv-x="1542" 
d="M18 -16l633 1423h240l633 -1423h-295l-133 329h-650l-133 -329h-295zM68 16h225l133 330h690l133 -330h226l-605 1358h-198zM496 522l276 649l275 -649h-551zM539 1731q0 97 65 163t160 66t161 -67t66 -162q0 -94 -66 -160t-161 -66t-160 65.5t-65 160.5zM545 555h452
l-225 535zM571 1731q0 -82 55.5 -137.5t137.5 -55.5q81 0 137.5 56.5t56.5 136.5q0 82 -56 139t-138 57t-137.5 -56.5t-55.5 -139.5zM686 1731q0 34 23 57.5t55 23.5q34 0 57 -23.5t23 -57.5q0 -32 -23 -55t-57 -23q-32 0 -55 23t-23 55zM719 1731q0 -20 12.5 -32.5
t32.5 -12.5t33.5 13t13.5 32q0 20 -13.5 34.5t-33.5 14.5t-32.5 -13.5t-12.5 -35.5z" />
    <glyph glyph-name="AE" unicode="&#xc6;" horiz-adv-x="2152" 
d="M-33 -16l1022 1423h1065v-242h-792v-303h630v-241h-630v-396h804v-241h-1060v329h-510l-232 -329h-297zM33 16h215l231 330h559v-330h996v177h-805v460h631v176h-631v369h792v176h-1015zM604 522l434 619v-619h-434zM666 555h340v483z" />
    <glyph glyph-name="Ccedilla" unicode="&#xc7;" horiz-adv-x="1441" 
d="M76 696q-2 156 57.5 295t163.5 238t251 156t312 55q160 0 277 -40t190 -91v-244l-31 -8q-4 6 -26 21t-63.5 35.5t-92 39.5t-118.5 32t-136 13q-233 0 -376.5 -139t-143.5 -363q0 -226 142.5 -362.5t377.5 -136.5q153 0 289.5 47t216.5 127v-277l-8 -14q-2 -1 -23 -13.5
t-40.5 -23t-58 -26t-78 -27t-97.5 -21.5t-121 -14l-22 -76q19 -6 37.5 -15t41 -25t36.5 -42.5t14 -58.5q0 -89 -87 -139.5t-235 -47.5v152q52 -3 87.5 13.5t35.5 43.5q0 24 -26 39.5t-52 18.5l-25 4l-14 20l33 115q-149 14 -278 77.5t-219.5 161t-141.5 227.5t-49 273z
M109 696q-3 -190 86 -349t249.5 -255t360.5 -106l-37 -133q24 -4 46.5 -12.5t44.5 -30t22 -50.5q0 -36 -34 -60.5t-89 -29.5v-86q119 3 187.5 44t68.5 110q0 25 -12.5 46t-30 32.5t-35.5 19.5t-30 11l-13 3l-12 21l34 117q249 10 418 116v197q-88 -65 -212.5 -101
t-260.5 -36q-248 0 -400.5 146.5t-152.5 385.5q0 238 153 386.5t400 148.5q131 0 246.5 -41.5t187.5 -89.5v192q-181 115 -434 115q-159 2 -299.5 -52t-240 -148.5t-156.5 -227.5t-55 -283z" />
    <glyph glyph-name="Egrave" unicode="&#xc8;" horiz-adv-x="1314" 
d="M168 -16v1423h1049v-242h-793v-303h631v-241h-631v-396h805v-241h-1061zM201 16h995v177h-805v460h631v176h-631v369h793v176h-983v-1358zM309 1898h316l200 -382h-241zM375 1866l225 -318h172l-168 318h-229z" />
    <glyph glyph-name="Eacute" unicode="&#xc9;" horiz-adv-x="1314" 
d="M168 -16v1423h1049v-242h-793v-303h631v-241h-631v-396h805v-241h-1061zM201 16h995v177h-805v460h631v176h-631v369h793v176h-983v-1358zM573 1516l201 382h316l-275 -382h-242zM627 1548h172l225 318h-229z" />
    <glyph glyph-name="Ecircumflex" unicode="&#xca;" horiz-adv-x="1314" 
d="M168 -16v1423h1049v-242h-793v-303h631v-241h-631v-396h805v-241h-1061zM201 16h995v177h-805v460h631v176h-631v369h793v176h-983v-1358zM338 1516l235 382h248l236 -382h-244l-115 157l-116 -157h-244zM395 1548h170l133 183l131 -183h170l-194 318h-215z" />
    <glyph glyph-name="Edieresis" unicode="&#xcb;" horiz-adv-x="1314" 
d="M168 -16v1423h1049v-242h-793v-303h631v-241h-631v-396h805v-241h-1061zM201 16h995v177h-805v460h631v176h-631v369h793v176h-983v-1358zM371 1669q0 54 38.5 92.5t92.5 38.5t91.5 -38.5t37.5 -92.5q0 -53 -38.5 -91t-90.5 -38q-54 0 -92.5 37.5t-38.5 91.5zM403 1669
q0 -39 29.5 -67.5t69.5 -28.5t68 28t28 68t-28 69t-68 29q-41 0 -70 -28.5t-29 -69.5zM764 1669q0 54 38.5 92.5t92.5 38.5t91.5 -38.5t37.5 -92.5q0 -53 -38 -91t-91 -38q-54 0 -92.5 37.5t-38.5 91.5zM797 1669q0 -40 29 -68t69 -28t68 28t28 68t-28 69t-68 29
q-41 0 -69.5 -28.5t-28.5 -69.5z" />
    <glyph glyph-name="Igrave" unicode="&#xcc;" horiz-adv-x="591" 
d="M-92 1898h315l201 -382h-242zM-27 1866l226 -318h172l-168 318h-230zM168 -16v1423h256v-1423h-256zM201 16h190v1358h-190v-1358z" />
    <glyph glyph-name="Iacute" unicode="&#xcd;" horiz-adv-x="591" 
d="M168 -16v1423h256v-1423h-256zM172 1516l201 382h315l-274 -382h-242zM201 16h190v1358h-190v-1358zM225 1548h172l226 318h-230z" />
    <glyph glyph-name="Icircumflex" unicode="&#xce;" horiz-adv-x="591" 
d="M-63 1516l235 382h248l235 -382h-243l-115 157l-117 -157h-243zM-6 1548h170l133 183l131 -183h170l-195 318h-215zM168 -16v1423h256v-1423h-256zM201 16h190v1358h-190v-1358z" />
    <glyph glyph-name="Idieresis" unicode="&#xcf;" horiz-adv-x="591" 
d="M-31 1669q0 54 38.5 92.5t92.5 38.5t91.5 -38.5t37.5 -92.5q0 -53 -38.5 -91t-90.5 -38q-54 0 -92.5 37.5t-38.5 91.5zM2 1669q0 -40 29 -68t69 -28t68.5 28t28.5 68t-28.5 69t-68.5 29q-41 0 -69.5 -28.5t-28.5 -69.5zM168 -16v1423h256v-1423h-256zM201 16h190v1358
h-190v-1358zM362 1669q0 54 39 92.5t93 38.5t91.5 -38.5t37.5 -92.5q0 -53 -38.5 -91t-90.5 -38q-54 0 -93 37.5t-39 91.5zM395 1669q0 -39 29.5 -67.5t69.5 -28.5t68 28t28 68t-28 69t-68 29q-41 0 -70 -28.5t-29 -69.5z" />
    <glyph glyph-name="Eth" unicode="&#xd0;" horiz-adv-x="1617" 
d="M-16 592v217h245v598h521q352 0 562 -193.5t210 -517.5q0 -156 -56.5 -289t-157 -226t-244.5 -145t-314 -52h-521v608h-245zM16 625h246v-609h488q330 0 534.5 188t204.5 492q0 310 -200.5 494t-538.5 184h-488v-598h-246v-151zM453 195v430h241v151h-241v422h278
q269 0 414 -130.5t145 -371.5q-7 -244 -150.5 -372.5t-406.5 -128.5h-280zM485 227h248q250 0 383 120t141 349q0 227 -135.5 348t-390.5 121h-246v-356h242v-217h-242v-365z" />
    <glyph glyph-name="Ntilde" unicode="&#xd1;" horiz-adv-x="1579" 
d="M168 -16v1423h281l708 -1018v1018h254v-1423h-272l-717 1034v-1034h-254zM201 16h188v1108l766 -1108h223v1358h-188v-1087l-758 1087h-231v-1358zM430 1587q17 117 71 181.5t136 64.5q78 0 156 -53h12v-2h-14l10 -4q72 -52 98 -52q11 0 18 5.5t11 17t6.5 22.5t5.5 29
t6 29l201 -74q-17 -117 -71 -181.5t-136 -64.5q-76 0 -156 54h-12v2h14l-10 4q-70 51 -98 51q-11 0 -18 -5.5t-11 -17t-6.5 -22.5t-5.5 -29t-6 -29zM467 1608l139 -49q14 90 72 90q38 0 115 -56h12v-2h-14l10 -2q68 -51 139 -51q63 0 107 50t63 143l-139 49q-14 -90 -72 -90
q-40 0 -115 55h-12v2h14l-10 2q-68 51 -139 51q-63 0 -107 -49.5t-63 -142.5z" />
    <glyph glyph-name="Ograve" unicode="&#xd2;" horiz-adv-x="1644" 
d="M76 696q-2 154 55.5 293t157 238.5t238.5 157t294 55.5q155 2 295 -55.5t240 -157t157.5 -238.5t55.5 -293q2 -154 -55.5 -293t-157.5 -238t-240 -156.5t-295 -55.5q-155 -2 -294 55.5t-238.5 156.5t-157 238t-55.5 293zM109 696q-3 -197 90.5 -361.5t258.5 -258
t363 -90.5q148 -2 282 53t229.5 150t150.5 227.5t53 279.5q2 147 -53 280t-150.5 228t-229.5 150t-282 53q-148 2 -281.5 -52.5t-228.5 -149.5t-149.5 -228t-52.5 -281zM305 696q0 233 145 384t371 151q227 0 371.5 -150t144.5 -385t-144 -383.5t-372 -148.5
q-227 0 -371.5 149.5t-144.5 382.5zM338 696q0 -221 134.5 -360t348.5 -139q215 0 349.5 138t134.5 361q0 221 -135 361.5t-349 140.5q-212 0 -347.5 -141t-135.5 -361zM434 1898h316l200 -382h-241zM500 1866l225 -318h172l-168 318h-229z" />
    <glyph glyph-name="Oacute" unicode="&#xd3;" horiz-adv-x="1644" 
d="M76 696q-2 154 55.5 293t157 238.5t238.5 157t294 55.5q155 2 295 -55.5t240 -157t157.5 -238.5t55.5 -293q2 -154 -55.5 -293t-157.5 -238t-240 -156.5t-295 -55.5q-155 -2 -294 55.5t-238.5 156.5t-157 238t-55.5 293zM109 696q-3 -197 90.5 -361.5t258.5 -258
t363 -90.5q148 -2 282 53t229.5 150t150.5 227.5t53 279.5q2 147 -53 280t-150.5 228t-229.5 150t-282 53q-148 2 -281.5 -52.5t-228.5 -149.5t-149.5 -228t-52.5 -281zM305 696q0 233 145 384t371 151q227 0 371.5 -150t144.5 -385t-144 -383.5t-372 -148.5
q-227 0 -371.5 149.5t-144.5 382.5zM338 696q0 -221 134.5 -360t348.5 -139q215 0 349.5 138t134.5 361q0 221 -135 361.5t-349 140.5q-212 0 -347.5 -141t-135.5 -361zM698 1516l201 382h315l-274 -382h-242zM752 1548h172l225 318h-229z" />
    <glyph glyph-name="Ocircumflex" unicode="&#xd4;" horiz-adv-x="1644" 
d="M76 696q-2 154 55.5 293t157 238.5t238.5 157t294 55.5q155 2 295 -55.5t240 -157t157.5 -238.5t55.5 -293q2 -154 -55.5 -293t-157.5 -238t-240 -156.5t-295 -55.5q-155 -2 -294 55.5t-238.5 156.5t-157 238t-55.5 293zM109 696q-3 -197 90.5 -361.5t258.5 -258
t363 -90.5q148 -2 282 53t229.5 150t150.5 227.5t53 279.5q2 147 -53 280t-150.5 228t-229.5 150t-282 53q-148 2 -281.5 -52.5t-228.5 -149.5t-149.5 -228t-52.5 -281zM305 696q0 233 145 384t371 151q227 0 371.5 -150t144.5 -385t-144 -383.5t-372 -148.5
q-227 0 -371.5 149.5t-144.5 382.5zM338 696q0 -221 134.5 -360t348.5 -139q215 0 349.5 138t134.5 361q0 221 -135 361.5t-349 140.5q-212 0 -347.5 -141t-135.5 -361zM463 1516l235 382h248l236 -382h-244l-115 157l-116 -157h-244zM520 1548h170l133 183l131 -183h170
l-194 318h-215z" />
    <glyph glyph-name="Otilde" unicode="&#xd5;" horiz-adv-x="1644" 
d="M76 696q-2 154 55.5 293t157 238.5t238.5 157t294 55.5q155 2 295 -55.5t240 -157t157.5 -238.5t55.5 -293q2 -154 -55.5 -293t-157.5 -238t-240 -156.5t-295 -55.5q-155 -2 -294 55.5t-238.5 156.5t-157 238t-55.5 293zM109 696q-3 -197 90.5 -361.5t258.5 -258
t363 -90.5q148 -2 282 53t229.5 150t150.5 227.5t53 279.5q2 147 -53 280t-150.5 228t-229.5 150t-282 53q-148 2 -281.5 -52.5t-228.5 -149.5t-149.5 -228t-52.5 -281zM305 696q0 233 145 384t371 151q227 0 371.5 -150t144.5 -385t-144 -383.5t-372 -148.5
q-227 0 -371.5 149.5t-144.5 382.5zM338 696q0 -221 134.5 -360t348.5 -139q215 0 349.5 138t134.5 361q0 221 -135 361.5t-349 140.5q-212 0 -347.5 -141t-135.5 -361zM463 1587q17 117 71 181.5t136 64.5q77 0 155 -53h13v-2h-15l11 -4q72 -52 98 -52q11 0 18 5.5t11 17
t6.5 22.5t5.5 29t6 29l201 -74q-17 -117 -71 -181.5t-136 -64.5q-76 0 -156 54h-12v2h14l-10 4q-70 51 -98 51q-11 0 -18 -5.5t-11 -17t-6.5 -22.5t-5.5 -29t-6 -29zM500 1608l139 -49q14 90 72 90q37 0 114 -56h13v-2h-15l11 -2q68 -51 139 -51q63 0 107 50t63 143l-139 49
q-14 -90 -72 -90q-40 0 -115 55h-12v2h14l-10 2q-68 51 -139 51q-63 0 -107 -49.5t-63 -142.5z" />
    <glyph glyph-name="Odieresis" unicode="&#xd6;" horiz-adv-x="1644" 
d="M76 696q-2 154 55.5 293t157 238.5t238.5 157t294 55.5q155 2 295 -55.5t240 -157t157.5 -238.5t55.5 -293q2 -154 -55.5 -293t-157.5 -238t-240 -156.5t-295 -55.5q-155 -2 -294 55.5t-238.5 156.5t-157 238t-55.5 293zM109 696q-3 -197 90.5 -361.5t258.5 -258
t363 -90.5q148 -2 282 53t229.5 150t150.5 227.5t53 279.5q2 147 -53 280t-150.5 228t-229.5 150t-282 53q-148 2 -281.5 -52.5t-228.5 -149.5t-149.5 -228t-52.5 -281zM305 696q0 233 145 384t371 151q227 0 371.5 -150t144.5 -385t-144 -383.5t-372 -148.5
q-227 0 -371.5 149.5t-144.5 382.5zM338 696q0 -221 134.5 -360t348.5 -139q215 0 349.5 138t134.5 361q0 221 -135 361.5t-349 140.5q-212 0 -347.5 -141t-135.5 -361zM496 1669q0 54 38.5 92.5t92.5 38.5t91.5 -38.5t37.5 -92.5q0 -53 -38 -91t-91 -38q-54 0 -92.5 37.5
t-38.5 91.5zM528 1669q0 -39 29.5 -67.5t69.5 -28.5t68 28t28 68t-28 69t-68 29q-41 0 -70 -28.5t-29 -69.5zM889 1669q0 54 38.5 92.5t92.5 38.5t91.5 -38.5t37.5 -92.5q0 -53 -38.5 -91t-90.5 -38q-54 0 -92.5 37.5t-38.5 91.5zM922 1669q0 -40 29 -68t69 -28t68 28t28 68
t-28 69t-68 29q-41 0 -69.5 -28.5t-28.5 -69.5z" />
    <glyph glyph-name="multiply" unicode="&#xd7;" horiz-adv-x="1386" 
d="M221 377l311 311l-311 311l172 172l312 -311l311 311l172 -172l-311 -311l311 -311l-172 -172l-311 311l-312 -311zM266 377l127 -127l312 311l311 -311l127 127l-312 311l312 311l-127 127l-311 -311l-312 311l-127 -127l312 -311z" />
    <glyph glyph-name="Oslash" unicode="&#xd8;" horiz-adv-x="1644" 
d="M16 133l172 158q-115 183 -112 405q-2 154 55.5 293t157 238.5t238.5 157t294 55.5q257 3 449 -142l170 160l184 -182l-176 -162q124 -189 121 -418q2 -154 -55.5 -293t-157.5 -238t-240 -156.5t-295 -55.5q-263 -3 -461 147l-159 -149zM66 133l135 -137l159 149
q191 -162 461 -159q148 -2 282 53t229.5 150t150.5 227.5t53 279.5q3 235 -131 422l170 158l-135 137l-168 -158q-190 155 -451 152q-148 2 -281.5 -52.5t-228.5 -149.5t-149.5 -228t-52.5 -281q-3 -226 120 -409zM305 696q0 233 145 384t371 151q185 0 316 -98l-764 -713
q-68 121 -68 276zM338 696q0 -124 45 -223l700 655q-115 70 -262 70q-212 0 -347.5 -141t-135.5 -361zM498 270l766 717q73 -125 73 -291q0 -235 -144 -383.5t-372 -148.5q-193 0 -323 106zM549 274q112 -77 272 -77q215 0 349.5 138t134.5 361q0 129 -50 238z" />
    <glyph glyph-name="Ugrave" unicode="&#xd9;" horiz-adv-x="1445" 
d="M137 530v877h256v-872q0 -158 86.5 -246t243.5 -88q169 0 249.5 82t80.5 252v872h256v-877q0 -278 -151.5 -427.5t-434.5 -149.5t-434.5 149.5t-151.5 427.5zM170 530q0 -264 142.5 -404t410.5 -140t410.5 140t142.5 404v844h-191v-839q0 -185 -89.5 -276t-272.5 -91
q-169 0 -266 98t-97 269v839h-190v-844zM334 1898h315l201 -382h-242zM399 1866l226 -318h172l-168 318h-230z" />
    <glyph glyph-name="Uacute" unicode="&#xda;" horiz-adv-x="1445" 
d="M137 530v877h256v-872q0 -158 86.5 -246t243.5 -88q169 0 249.5 82t80.5 252v872h256v-877q0 -278 -151.5 -427.5t-434.5 -149.5t-434.5 149.5t-151.5 427.5zM170 530q0 -264 142.5 -404t410.5 -140t410.5 140t142.5 404v844h-191v-839q0 -185 -89.5 -276t-272.5 -91
q-169 0 -266 98t-97 269v839h-190v-844zM598 1516l201 382h315l-274 -382h-242zM651 1548h172l226 318h-230z" />
    <glyph glyph-name="Ucircumflex" unicode="&#xdb;" horiz-adv-x="1445" 
d="M137 530v877h256v-872q0 -158 86.5 -246t243.5 -88q169 0 249.5 82t80.5 252v872h256v-877q0 -278 -151.5 -427.5t-434.5 -149.5t-434.5 149.5t-151.5 427.5zM170 530q0 -264 142.5 -404t410.5 -140t410.5 140t142.5 404v844h-191v-839q0 -185 -89.5 -276t-272.5 -91
q-169 0 -266 98t-97 269v839h-190v-844zM362 1516l236 382h248l235 -382h-243l-115 157l-117 -157h-244zM420 1548h170l133 183l131 -183h170l-195 318h-215z" />
    <glyph glyph-name="Udieresis" unicode="&#xdc;" horiz-adv-x="1445" 
d="M137 530v877h256v-872q0 -158 86.5 -246t243.5 -88q169 0 249.5 82t80.5 252v872h256v-877q0 -278 -151.5 -427.5t-434.5 -149.5t-434.5 149.5t-151.5 427.5zM170 530q0 -264 142.5 -404t410.5 -140t410.5 140t142.5 404v844h-191v-839q0 -185 -89.5 -276t-272.5 -91
q-169 0 -266 98t-97 269v839h-190v-844zM395 1669q0 54 38.5 92.5t92.5 38.5t91.5 -38.5t37.5 -92.5q0 -53 -38.5 -91t-90.5 -38q-54 0 -92.5 37.5t-38.5 91.5zM428 1669q0 -40 29 -68t69 -28t68.5 28t28.5 68t-28.5 69t-68.5 29q-41 0 -69.5 -28.5t-28.5 -69.5zM788 1669
q0 54 39 92.5t93 38.5t91.5 -38.5t37.5 -92.5q0 -53 -38.5 -91t-90.5 -38q-54 0 -93 37.5t-39 91.5zM821 1669q0 -39 29.5 -67.5t69.5 -28.5t68 28t28 68t-28 69t-68 29q-41 0 -70 -28.5t-29 -69.5z" />
    <glyph glyph-name="Yacute" unicode="&#xdd;" horiz-adv-x="1384" 
d="M10 1407h305l377 -578l375 578h307l-553 -815v-608h-258v608zM72 1374l524 -774v-584h192v584l525 774h-230l-391 -606l-393 606h-227zM567 1516l201 382h315l-274 -382h-242zM621 1548h172l225 318h-230z" />
    <glyph glyph-name="Thorn" unicode="&#xde;" horiz-adv-x="1429" 
d="M168 -16v1423h256v-184h373q258 0 403.5 -139.5t145.5 -385.5q0 -236 -152.5 -380t-402.5 -144h-367v-190h-256zM201 16h190v191h400q238 0 380 133.5t142 357.5q0 232 -136 362t-380 130h-406v184h-190v-1358zM391 379v635h389q166 0 251 -81t85 -239q0 -156 -85 -235.5
t-251 -79.5h-389zM424 412h356q154 0 228.5 69.5t74.5 212.5q0 145 -74.5 216t-228.5 71h-356v-569z" />
    <glyph glyph-name="germandbls" unicode="&#xdf;" horiz-adv-x="1243" 
d="M4 633v209h164v104q0 227 130.5 363.5t348.5 136.5q211 0 324.5 -101.5t113.5 -289.5q0 -103 -51.5 -182.5t-142.5 -114.5q132 -38 209.5 -137.5t77.5 -231.5q0 -195 -134.5 -313.5t-355.5 -118.5q-60 0 -104 8v225q78 -10 104 -10q41 0 78.5 9.5t73.5 31t58 63t22 99.5
q0 103 -82.5 172.5t-202.5 69.5h-51v219q120 -5 190 51.5t70 157.5q0 180 -197 180q-100 0 -163.5 -74.5t-63.5 -191.5v-983h-252v649h-164zM37 666h164v-650h186v951q0 131 73 215t187 84q112 0 171 -55t59 -158q0 -107 -71 -172t-190 -70v-154h19q134 0 225.5 -78.5
t91.5 -195.5q0 -108 -72 -172t-192 -64q-32 0 -72 7v-160q40 -4 72 -4q207 0 332 109t125 290q0 157 -114.5 258t-297.5 101v18q141 -6 230.5 76t89.5 213q0 175 -104 266.5t-302 91.5q-206 0 -326 -126t-120 -341v-137h-164v-143z" />
    <glyph glyph-name="agrave" unicode="&#xe0;" 
d="M66 528q0 121 43.5 228.5t119 184t181 121t225.5 44.5q97 0 186.5 -29.5t153.5 -83.5v82h252v-1091h-256l2 86q-142 -117 -338 -117q-160 0 -290.5 75.5t-204.5 207t-74 292.5zM98 528q0 -152 70 -276.5t193.5 -195t273.5 -70.5q238 0 371 168l-2 -138h190v1026h-186
v-129q-55 73 -156 116.5t-217 43.5q-150 0 -273.5 -71.5t-193.5 -196.5t-70 -277zM287 530q0 160 105 269.5t259 109.5q164 0 266.5 -105t102.5 -274q0 -170 -102 -275t-267 -105q-154 0 -259 110t-105 270zM289 1565h315l201 -383h-242zM319 530q0 -146 96 -247t236 -101
q151 0 243.5 95.5t92.5 252.5q0 155 -92.5 251t-243.5 96q-140 0 -236 -100.5t-96 -246.5zM354 1532l226 -318h172l-168 318h-230z" />
    <glyph glyph-name="aacute" unicode="&#xe1;" 
d="M66 528q0 121 43.5 228.5t119 184t181 121t225.5 44.5q97 0 186.5 -29.5t153.5 -83.5v82h252v-1091h-256l2 86q-142 -117 -338 -117q-160 0 -290.5 75.5t-204.5 207t-74 292.5zM98 528q0 -152 70 -276.5t193.5 -195t273.5 -70.5q238 0 371 168l-2 -138h190v1026h-186
v-129q-55 73 -156 116.5t-217 43.5q-150 0 -273.5 -71.5t-193.5 -196.5t-70 -277zM287 530q0 160 105 269.5t259 109.5q164 0 266.5 -105t102.5 -274q0 -170 -102 -275t-267 -105q-154 0 -259 110t-105 270zM319 530q0 -146 96 -247t236 -101q151 0 243.5 95.5t92.5 252.5
q0 155 -92.5 251t-243.5 96q-140 0 -236 -100.5t-96 -246.5zM553 1182l201 383h315l-274 -383h-242zM606 1214h172l226 318h-230z" />
    <glyph glyph-name="acircumflex" unicode="&#xe2;" 
d="M66 528q0 121 43.5 228.5t119 184t181 121t225.5 44.5q97 0 186.5 -29.5t153.5 -83.5v82h252v-1091h-256l2 86q-142 -117 -338 -117q-160 0 -290.5 75.5t-204.5 207t-74 292.5zM98 528q0 -152 70 -276.5t193.5 -195t273.5 -70.5q238 0 371 168l-2 -138h190v1026h-186
v-129q-55 73 -156 116.5t-217 43.5q-150 0 -273.5 -71.5t-193.5 -196.5t-70 -277zM287 530q0 160 105 269.5t259 109.5q164 0 266.5 -105t102.5 -274q0 -170 -102 -275t-267 -105q-154 0 -259 110t-105 270zM317 1182l236 383h248l235 -383h-243l-115 157l-117 -157h-244z
M319 530q0 -146 96 -247t236 -101q151 0 243.5 95.5t92.5 252.5q0 155 -92.5 251t-243.5 96q-140 0 -236 -100.5t-96 -246.5zM375 1214h170l133 183l131 -183h170l-195 318h-215z" />
    <glyph glyph-name="atilde" unicode="&#xe3;" 
d="M66 528q0 121 43.5 228.5t119 184t181 121t225.5 44.5q97 0 186.5 -29.5t153.5 -83.5v82h252v-1091h-256l2 86q-142 -117 -338 -117q-160 0 -290.5 75.5t-204.5 207t-74 292.5zM98 528q0 -152 70 -276.5t193.5 -195t273.5 -70.5q238 0 371 168l-2 -138h190v1026h-186
v-129q-55 73 -156 116.5t-217 43.5q-150 0 -273.5 -71.5t-193.5 -196.5t-70 -277zM287 530q0 160 105 269.5t259 109.5q164 0 266.5 -105t102.5 -274q0 -170 -102 -275t-267 -105q-154 0 -259 110t-105 270zM317 1253q17 117 71 181.5t136 64.5q78 0 156 -53h12v-2h-14
l10 -4q70 -51 98 -51q11 0 18 5.5t11.5 17t7 22t5.5 28.5t6 29l200 -74q-17 -117 -71 -181.5t-136 -64.5q-75 0 -155 54h-13v2h15l-10 4q-70 51 -99 51q-11 0 -18 -5.5t-11 -17t-6.5 -22t-5.5 -28.5t-6 -29zM319 530q0 -146 96 -247t236 -101q151 0 243.5 95.5t92.5 252.5
q0 155 -92.5 251t-243.5 96q-140 0 -236 -100.5t-96 -246.5zM354 1274l140 -49q4 25 9.5 42t21 32.5t40.5 15.5q40 0 115 -55h12v-3h-14l10 -2q68 -51 139 -51q63 0 107 50t63 143l-139 49q-14 -90 -72 -90q-39 0 -114 55h-13v2h15l-10 2q-68 51 -140 51q-63 0 -107 -49.5
t-63 -142.5z" />
    <glyph glyph-name="adieresis" unicode="&#xe4;" 
d="M66 528q0 121 43.5 228.5t119 184t181 121t225.5 44.5q97 0 186.5 -29.5t153.5 -83.5v82h252v-1091h-256l2 86q-142 -117 -338 -117q-160 0 -290.5 75.5t-204.5 207t-74 292.5zM98 528q0 -152 70 -276.5t193.5 -195t273.5 -70.5q238 0 371 168l-2 -138h190v1026h-186
v-129q-55 73 -156 116.5t-217 43.5q-150 0 -273.5 -71.5t-193.5 -196.5t-70 -277zM287 530q0 160 105 269.5t259 109.5q164 0 266.5 -105t102.5 -274q0 -170 -102 -275t-267 -105q-154 0 -259 110t-105 270zM319 530q0 -146 96 -247t236 -101q151 0 243.5 95.5t92.5 252.5
q0 155 -92.5 251t-243.5 96q-140 0 -236 -100.5t-96 -246.5zM350 1335q0 54 38.5 92.5t92.5 38.5t91.5 -38.5t37.5 -92.5q0 -53 -38 -91t-91 -38q-54 0 -92.5 37.5t-38.5 91.5zM383 1335q0 -40 29 -68t69 -28t68.5 28t28.5 68t-28.5 69.5t-68.5 29.5q-41 0 -69.5 -29
t-28.5 -70zM743 1335q0 54 38.5 92.5t92.5 38.5t92 -38.5t38 -92.5q0 -52 -38.5 -90.5t-91.5 -38.5q-54 0 -92.5 37.5t-38.5 91.5zM776 1335q0 -40 29 -68t69 -28t68.5 28t28.5 68t-28.5 69.5t-68.5 29.5q-41 0 -69.5 -29t-28.5 -70z" />
    <glyph glyph-name="aring" unicode="&#xe5;" 
d="M66 528q0 121 43.5 228.5t119 184t181 121t225.5 44.5q97 0 186.5 -29.5t153.5 -83.5v82h252v-1091h-256l2 86q-142 -117 -338 -117q-160 0 -290.5 75.5t-204.5 207t-74 292.5zM98 528q0 -152 70 -276.5t193.5 -195t273.5 -70.5q238 0 371 168l-2 -138h190v1026h-186
v-129q-55 73 -156 116.5t-217 43.5q-150 0 -273.5 -71.5t-193.5 -196.5t-70 -277zM287 530q0 160 105 269.5t259 109.5q164 0 266.5 -105t102.5 -274q0 -170 -102 -275t-267 -105q-154 0 -259 110t-105 270zM319 530q0 -146 96 -247t236 -101q151 0 243.5 95.5t92.5 252.5
q0 155 -92.5 251t-243.5 96q-140 0 -236 -100.5t-96 -246.5zM451 1397q0 97 65 163t160 66t161 -67t66 -162q0 -94 -66 -160t-161 -66t-160 65.5t-65 160.5zM483 1397q0 -82 55.5 -137.5t137.5 -55.5q81 0 137.5 56.5t56.5 136.5q0 82 -56 139t-138 57t-137.5 -56.5
t-55.5 -139.5zM598 1397q0 34 23 58t55 24q34 0 57 -24t23 -58q0 -32 -23 -55t-57 -23q-32 0 -55 23t-23 55zM631 1397q0 -20 12.5 -32.5t32.5 -12.5t33.5 13t13.5 32q0 20 -13.5 34.5t-33.5 14.5t-32.5 -13.5t-12.5 -35.5z" />
    <glyph glyph-name="ae" unicode="&#xe6;" horiz-adv-x="1992" 
d="M66 326q0 166 126.5 271t327.5 105q181 0 318 -59q0 236 -295 236q-194 0 -357 -88v239q144 78 381 78q305 0 437 -170q168 168 421 168q141 0 256.5 -69t180.5 -189.5t65 -267.5v-119h-835v-31q32 -119 124 -183.5t228 -64.5q51 0 101.5 6t90.5 16t76.5 22t63.5 23.5
t46.5 21.5t30.5 16l11 6l16 -17v-198l-6 -12q-5 -5 -15 -12.5t-47.5 -27t-82.5 -34.5t-123 -27t-166 -12q-296 0 -463 192q-69 -94 -186 -143t-271 -49q-200 0 -327 104.5t-127 268.5zM98 326q0 -151 117.5 -245.5t304.5 -94.5q160 0 278 56t175 159q77 -104 196.5 -159.5
t270.5 -55.5q92 0 169.5 12t125.5 31t72.5 32t39.5 25v164q-31 -20 -76 -39.5t-136.5 -40t-190.5 -20.5q-149 0 -249.5 72t-135.5 204v68h835v86q0 211 -134 352t-335 141q-126 0 -237 -48.5t-189 -137.5q-117 188 -432 188q-215 0 -348 -65v-166q156 67 324 67
q160 0 243.5 -68.5t83.5 -199.5v-27l-24 -14q-130 68 -326 68q-187 0 -304.5 -96t-117.5 -248zM279 326q0 90 77 143t205 53q148 0 228.5 -50.5t80.5 -145.5q0 -92 -80.5 -142.5t-228.5 -50.5q-129 0 -205.5 52.5t-76.5 140.5zM311 326q0 -73 68 -116.5t182 -43.5
q133 0 205 41.5t72 118.5q0 78 -72 120.5t-205 42.5q-115 0 -182.5 -44t-67.5 -119zM1057 633q1 24 10.5 57.5t35 75.5t62 77t97.5 59t135 24q75 0 133 -24t90 -58.5t53 -78t27.5 -75t7.5 -57.5h-651zM1096 666h575q-6 38 -20.5 72t-44 72t-83.5 60.5t-126 22.5
q-59 0 -108 -16t-81.5 -39.5t-56.5 -55.5t-36.5 -60t-18.5 -56z" />
    <glyph glyph-name="ccedilla" unicode="&#xe7;" horiz-adv-x="1132" 
d="M66 530q0 122 45.5 229t124 183t189.5 120t237 44q119 0 225 -36.5t170 -100.5v-234l-29 -10q-5 6 -14.5 16.5t-43.5 37t-73 47t-102.5 37t-132.5 16.5q-148 0 -248.5 -100.5t-100.5 -248.5q0 -159 100.5 -254.5t268.5 -95.5q68 0 131 11t104 26.5t73 31.5t46 27l15 11
l26 -13v-213q-99 -83 -313 -104l-25 -78q19 -6 37.5 -15t41 -25t36.5 -42.5t14 -58.5q0 -89 -86.5 -139.5t-234.5 -47.5v152q52 -3 87.5 13.5t35.5 43.5q0 24 -26 39.5t-52 18.5l-25 4l-14 20l33 117q-240 26 -380 180t-140 391zM98 530q0 -234 143.5 -381.5t385.5 -160.5
l-37 -135q24 -4 46.5 -12.5t44 -30t21.5 -50.5q0 -36 -33.5 -60.5t-88.5 -29.5v-86q119 3 187.5 44t68.5 110q0 25 -12.5 46t-30 32.5t-35.5 19.5t-30 11l-13 3l-13 21l37 115q206 18 305 92v166q-150 -97 -362 -97q-181 0 -291 105t-110 278q0 160 110.5 270.5t270.5 110.5
q125 0 215.5 -42t146.5 -93v178q-61 55 -158.5 87t-203.5 32q-243 0 -403.5 -155t-160.5 -388z" />
    <glyph glyph-name="egrave" unicode="&#xe8;" horiz-adv-x="1220" 
d="M66 530q0 121 45 228t123 183.5t187 120.5t232 44q141 0 256.5 -69t180.5 -189.5t65 -267.5v-119h-844q26 -132 120.5 -205.5t240.5 -73.5q51 0 101.5 6t90.5 16t76.5 22t63.5 23.5t46.5 21.5t30.5 16l11 6l16 -17v-198l-6 -12q-5 -5 -15 -12.5t-47.5 -27t-82.5 -34.5
t-123 -27t-166 -12q-267 0 -434.5 161t-167.5 416zM98 530q0 -242 158.5 -393t411.5 -151q92 0 169.5 12t125.5 31t72.5 32t39.5 25v164q-31 -20 -76 -39.5t-136.5 -40t-190.5 -20.5q-167 0 -273 91.5t-125 252.5h848v86q0 211 -134 352t-335 141q-156 0 -283.5 -71
t-199.5 -195.5t-72 -276.5zM264 1565h316l200 -383h-241zM285 633q1 24 10.5 57.5t35 75.5t62 77t97.5 59t135 24q75 0 133 -24t90 -58.5t53 -78t27.5 -75t7.5 -57.5h-651zM324 666h575q-6 38 -20.5 72t-44 72t-83.5 60.5t-126 22.5q-59 0 -108 -16t-81.5 -39.5t-56.5 -55.5
t-36.5 -60t-18.5 -56zM330 1532l225 -318h172l-168 318h-229z" />
    <glyph glyph-name="eacute" unicode="&#xe9;" horiz-adv-x="1220" 
d="M66 530q0 121 45 228t123 183.5t187 120.5t232 44q141 0 256.5 -69t180.5 -189.5t65 -267.5v-119h-844q26 -132 120.5 -205.5t240.5 -73.5q51 0 101.5 6t90.5 16t76.5 22t63.5 23.5t46.5 21.5t30.5 16l11 6l16 -17v-198l-6 -12q-5 -5 -15 -12.5t-47.5 -27t-82.5 -34.5
t-123 -27t-166 -12q-267 0 -434.5 161t-167.5 416zM98 530q0 -242 158.5 -393t411.5 -151q92 0 169.5 12t125.5 31t72.5 32t39.5 25v164q-31 -20 -76 -39.5t-136.5 -40t-190.5 -20.5q-167 0 -273 91.5t-125 252.5h848v86q0 211 -134 352t-335 141q-156 0 -283.5 -71
t-199.5 -195.5t-72 -276.5zM285 633q1 24 10.5 57.5t35 75.5t62 77t97.5 59t135 24q75 0 133 -24t90 -58.5t53 -78t27.5 -75t7.5 -57.5h-651zM324 666h575q-6 38 -20.5 72t-44 72t-83.5 60.5t-126 22.5q-59 0 -108 -16t-81.5 -39.5t-56.5 -55.5t-36.5 -60t-18.5 -56z
M528 1182l201 383h315l-274 -383h-242zM582 1214h172l225 318h-229z" />
    <glyph glyph-name="ecircumflex" unicode="&#xea;" horiz-adv-x="1220" 
d="M66 530q0 121 45 228t123 183.5t187 120.5t232 44q141 0 256.5 -69t180.5 -189.5t65 -267.5v-119h-844q26 -132 120.5 -205.5t240.5 -73.5q51 0 101.5 6t90.5 16t76.5 22t63.5 23.5t46.5 21.5t30.5 16l11 6l16 -17v-198l-6 -12q-5 -5 -15 -12.5t-47.5 -27t-82.5 -34.5
t-123 -27t-166 -12q-267 0 -434.5 161t-167.5 416zM98 530q0 -242 158.5 -393t411.5 -151q92 0 169.5 12t125.5 31t72.5 32t39.5 25v164q-31 -20 -76 -39.5t-136.5 -40t-190.5 -20.5q-167 0 -273 91.5t-125 252.5h848v86q0 211 -134 352t-335 141q-156 0 -283.5 -71
t-199.5 -195.5t-72 -276.5zM285 633q1 24 10.5 57.5t35 75.5t62 77t97.5 59t135 24q75 0 133 -24t90 -58.5t53 -78t27.5 -75t7.5 -57.5h-651zM293 1182l235 383h248l236 -383h-244l-115 157l-116 -157h-244zM324 666h575q-6 38 -20.5 72t-44 72t-83.5 60.5t-126 22.5
q-59 0 -108 -16t-81.5 -39.5t-56.5 -55.5t-36.5 -60t-18.5 -56zM350 1214h170l133 183l131 -183h170l-194 318h-215z" />
    <glyph glyph-name="edieresis" unicode="&#xeb;" horiz-adv-x="1220" 
d="M66 530q0 121 45 228t123 183.5t187 120.5t232 44q141 0 256.5 -69t180.5 -189.5t65 -267.5v-119h-844q26 -132 120.5 -205.5t240.5 -73.5q51 0 101.5 6t90.5 16t76.5 22t63.5 23.5t46.5 21.5t30.5 16l11 6l16 -17v-198l-6 -12q-5 -5 -15 -12.5t-47.5 -27t-82.5 -34.5
t-123 -27t-166 -12q-267 0 -434.5 161t-167.5 416zM98 530q0 -242 158.5 -393t411.5 -151q92 0 169.5 12t125.5 31t72.5 32t39.5 25v164q-31 -20 -76 -39.5t-136.5 -40t-190.5 -20.5q-167 0 -273 91.5t-125 252.5h848v86q0 211 -134 352t-335 141q-156 0 -283.5 -71
t-199.5 -195.5t-72 -276.5zM285 633q1 24 10.5 57.5t35 75.5t62 77t97.5 59t135 24q75 0 133 -24t90 -58.5t53 -78t27.5 -75t7.5 -57.5h-651zM324 666h575q-6 38 -20.5 72t-44 72t-83.5 60.5t-126 22.5q-59 0 -108 -16t-81.5 -39.5t-56.5 -55.5t-36.5 -60t-18.5 -56z
M326 1335q0 54 38.5 92.5t92.5 38.5t91.5 -38.5t37.5 -92.5q0 -53 -38 -91t-91 -38q-54 0 -92.5 37.5t-38.5 91.5zM358 1335q0 -39 29.5 -67.5t69.5 -28.5t68 28t28 68t-28.5 69.5t-67.5 29.5q-41 0 -70 -29t-29 -70zM719 1335q0 54 38.5 92.5t92.5 38.5t91.5 -38.5
t37.5 -92.5q0 -53 -38.5 -91t-90.5 -38q-54 0 -92.5 37.5t-38.5 91.5zM752 1335q0 -40 29 -68t69 -28t68 28t28 68t-28.5 69.5t-67.5 29.5q-41 0 -69.5 -29t-28.5 -70z" />
    <glyph glyph-name="igrave" unicode="&#xec;" horiz-adv-x="561" 
d="M-100 1565h315l201 -383h-242zM-35 1532l225 -318h172l-167 318h-230zM160 -16v1091h254v-1091h-254zM193 16h188v1026h-188v-1026z" />
    <glyph glyph-name="iacute" unicode="&#xed;" horiz-adv-x="561" 
d="M160 -16v1091h254v-1091h-254zM164 1182l201 383h315l-274 -383h-242zM193 16h188v1026h-188v-1026zM217 1214h172l225 318h-229z" />
    <glyph glyph-name="icircumflex" unicode="&#xee;" horiz-adv-x="561" 
d="M-72 1182l236 383h248l235 -383h-244l-114 157l-117 -157h-244zM-14 1214h170l133 183l131 -183h170l-195 318h-215zM160 -16v1091h254v-1091h-254zM193 16h188v1026h-188v-1026z" />
    <glyph glyph-name="idieresis" unicode="&#xef;" horiz-adv-x="561" 
d="M-39 1335q0 54 38.5 92.5t92.5 38.5t91.5 -38.5t37.5 -92.5q0 -53 -38.5 -91t-90.5 -38q-54 0 -92.5 37.5t-38.5 91.5zM-6 1335q0 -40 29 -68t69 -28t68 28t28 68t-28.5 69.5t-67.5 29.5q-41 0 -69.5 -29t-28.5 -70zM160 -16v1091h254v-1091h-254zM193 16h188v1026h-188
v-1026zM354 1335q0 54 38.5 92.5t92.5 38.5t91.5 -38.5t37.5 -92.5q0 -53 -38 -91t-91 -38q-54 0 -92.5 37.5t-38.5 91.5zM387 1335q0 -40 29 -68t69 -28t68.5 28t28.5 68t-28.5 69.5t-68.5 29.5q-41 0 -69.5 -29t-28.5 -70z" />
    <glyph glyph-name="eth" unicode="&#xf0;" horiz-adv-x="1206" 
d="M66 444q0 221 142 357.5t374 136.5q89 0 171 -30.5t142 -86.5q-60 166 -182 248l-51 -113l-197 95l47 98q-129 27 -322 27v225q232 3 412 -51l43 98l193 -96l-39 -88q342 -208 342 -705q0 -281 -144 -443.5t-393 -162.5q-241 0 -389.5 135.5t-148.5 355.5zM98 444
q0 -207 138.5 -332.5t367.5 -125.5q235 0 369.5 152.5t134.5 420.5q0 495 -350 692l39 84l-135 68l-44 -94q-159 56 -395 59v-160q204 0 334 -37l-47 -104l135 -66l51 115q109 -60 174 -167.5t93 -274.5q-41 103 -147 167t-234 64q-218 0 -351 -127t-133 -334zM287 451
q0 130 81.5 210t213.5 80q153 0 246.5 -79.5t93.5 -210.5q0 -128 -91.5 -214.5t-226.5 -86.5q-141 0 -229 83.5t-88 217.5zM319 451q0 -122 78 -195.5t207 -73.5q121 0 203 77.5t82 191.5q0 118 -83.5 188t-223.5 70q-119 0 -191 -70.5t-72 -187.5z" />
    <glyph glyph-name="ntilde" unicode="&#xf1;" horiz-adv-x="1296" 
d="M160 -16v1091h254v-94q107 127 313 127q201 0 321.5 -124t120.5 -333v-667h-254v645q0 118 -58.5 184t-162.5 66q-125 0 -202.5 -78t-77.5 -205v-612h-254zM193 16h188v580q0 139 87.5 227t225.5 88q119 0 186.5 -75t67.5 -207v-613h189v635q0 195 -111 309.5t-299 114.5
q-69 0 -127 -16t-91.5 -38.5t-56.5 -44.5t-32 -38l-8 -16l-31 6v114h-188v-1026zM354 1253q17 117 71 181.5t136 64.5q78 0 156 -53h12v-2h-14l10 -4q70 -51 98 -51q11 0 18 5.5t11 17t6.5 22t5.5 28.5t6 29l201 -74q-17 -117 -71 -181.5t-136 -64.5q-75 0 -155 54h-13v2h15
l-11 4q-70 51 -98 51q-11 0 -18 -5.5t-11 -17t-6.5 -22t-5.5 -28.5t-6 -29zM391 1274l139 -49q14 90 72 90q40 0 115 -55h12v-3h-14l10 -2q68 -51 139 -51q63 0 107 50t63 143l-139 49q-14 -90 -72 -90q-39 0 -114 55h-13v2h15l-11 2q-68 51 -139 51q-63 0 -107 -49.5
t-63 -142.5z" />
    <glyph glyph-name="ograve" unicode="&#xf2;" horiz-adv-x="1323" 
d="M66 528q0 157 79.5 290t217 210.5t299.5 77.5t299 -77.5t216.5 -210.5t79.5 -290t-79.5 -289.5t-216.5 -209t-299 -76.5q-122 0 -232 45.5t-190 122t-127 183t-47 224.5zM98 528q0 -111 44.5 -211.5t120.5 -173t180 -115t219 -42.5q153 0 282.5 72t205 197t75.5 273
t-75.5 273.5t-205 198.5t-282.5 73t-283 -73t-205.5 -198.5t-75.5 -273.5zM272 1565h316l200 -383h-241zM279 528q0 160 111 269.5t272 109.5t271.5 -109.5t110.5 -269.5q0 -158 -110.5 -267t-271.5 -109t-272 109t-111 267zM311 528q0 -145 101.5 -244.5t249.5 -99.5
t249 99.5t101 244.5q0 146 -101 246t-249 100t-249.5 -100t-101.5 -246zM338 1532l225 -318h172l-168 318h-229z" />
    <glyph glyph-name="oacute" unicode="&#xf3;" horiz-adv-x="1323" 
d="M66 528q0 157 79.5 290t217 210.5t299.5 77.5t299 -77.5t216.5 -210.5t79.5 -290t-79.5 -289.5t-216.5 -209t-299 -76.5q-122 0 -232 45.5t-190 122t-127 183t-47 224.5zM98 528q0 -111 44.5 -211.5t120.5 -173t180 -115t219 -42.5q153 0 282.5 72t205 197t75.5 273
t-75.5 273.5t-205 198.5t-282.5 73t-283 -73t-205.5 -198.5t-75.5 -273.5zM279 528q0 160 111 269.5t272 109.5t271.5 -109.5t110.5 -269.5q0 -158 -110.5 -267t-271.5 -109t-272 109t-111 267zM311 528q0 -145 101.5 -244.5t249.5 -99.5t249 99.5t101 244.5q0 146 -101 246
t-249 100t-249.5 -100t-101.5 -246zM537 1182l200 383h316l-275 -383h-241zM590 1214h172l225 318h-229z" />
    <glyph glyph-name="ocircumflex" unicode="&#xf4;" horiz-adv-x="1323" 
d="M66 528q0 157 79.5 290t217 210.5t299.5 77.5t299 -77.5t216.5 -210.5t79.5 -290t-79.5 -289.5t-216.5 -209t-299 -76.5q-122 0 -232 45.5t-190 122t-127 183t-47 224.5zM98 528q0 -111 44.5 -211.5t120.5 -173t180 -115t219 -42.5q153 0 282.5 72t205 197t75.5 273
t-75.5 273.5t-205 198.5t-282.5 73t-283 -73t-205.5 -198.5t-75.5 -273.5zM279 528q0 160 111 269.5t272 109.5t271.5 -109.5t110.5 -269.5q0 -158 -110.5 -267t-271.5 -109t-272 109t-111 267zM301 1182l236 383h247l236 -383h-244l-114 157l-117 -157h-244zM311 528
q0 -145 101.5 -244.5t249.5 -99.5t249 99.5t101 244.5q0 146 -101 246t-249 100t-249.5 -100t-101.5 -246zM358 1214h170l134 183l131 -183h170l-195 318h-215z" />
    <glyph glyph-name="otilde" unicode="&#xf5;" horiz-adv-x="1323" 
d="M66 528q0 157 79.5 290t217 210.5t299.5 77.5t299 -77.5t216.5 -210.5t79.5 -290t-79.5 -289.5t-216.5 -209t-299 -76.5q-122 0 -232 45.5t-190 122t-127 183t-47 224.5zM98 528q0 -111 44.5 -211.5t120.5 -173t180 -115t219 -42.5q153 0 282.5 72t205 197t75.5 273
t-75.5 273.5t-205 198.5t-282.5 73t-283 -73t-205.5 -198.5t-75.5 -273.5zM279 528q0 160 111 269.5t272 109.5t271.5 -109.5t110.5 -269.5q0 -158 -110.5 -267t-271.5 -109t-272 109t-111 267zM301 1253q17 117 71 181.5t136 64.5q78 0 156 -53h12v-2h-14l10 -4
q70 -51 98 -51q11 0 18 5.5t11 17t6.5 22t5.5 28.5t6 29l201 -74q-17 -117 -71 -181.5t-136 -64.5q-76 0 -156 54h-12v2h14l-10 4q-70 51 -98 51q-11 0 -18 -5.5t-11 -17t-6.5 -22t-5.5 -28.5t-6 -29zM311 528q0 -145 101.5 -244.5t249.5 -99.5t249 99.5t101 244.5
q0 146 -101 246t-249 100t-249.5 -100t-101.5 -246zM338 1274l139 -49q14 90 72 90q40 0 115 -55h12v-3h-14l10 -2q68 -51 139 -51q63 0 107 50t63 143l-139 49q-14 -90 -72 -90q-40 0 -115 55h-12v2h14l-10 2q-68 51 -139 51q-63 0 -107 -49.5t-63 -142.5z" />
    <glyph glyph-name="odieresis" unicode="&#xf6;" horiz-adv-x="1323" 
d="M66 528q0 157 79.5 290t217 210.5t299.5 77.5t299 -77.5t216.5 -210.5t79.5 -290t-79.5 -289.5t-216.5 -209t-299 -76.5q-122 0 -232 45.5t-190 122t-127 183t-47 224.5zM98 528q0 -111 44.5 -211.5t120.5 -173t180 -115t219 -42.5q153 0 282.5 72t205 197t75.5 273
t-75.5 273.5t-205 198.5t-282.5 73t-283 -73t-205.5 -198.5t-75.5 -273.5zM279 528q0 160 111 269.5t272 109.5t271.5 -109.5t110.5 -269.5q0 -158 -110.5 -267t-271.5 -109t-272 109t-111 267zM311 528q0 -145 101.5 -244.5t249.5 -99.5t249 99.5t101 244.5q0 146 -101 246
t-249 100t-249.5 -100t-101.5 -246zM334 1335q0 54 38.5 92.5t92.5 38.5t91.5 -38.5t37.5 -92.5q0 -53 -38 -91t-91 -38q-54 0 -92.5 37.5t-38.5 91.5zM367 1335q0 -40 29 -68t69 -28t68 28t28 68t-28.5 69.5t-67.5 29.5q-41 0 -69.5 -29t-28.5 -70zM727 1335
q0 54 38.5 92.5t92.5 38.5t91.5 -38.5t37.5 -92.5q0 -53 -38.5 -91t-90.5 -38q-54 0 -92.5 37.5t-38.5 91.5zM760 1335q0 -40 29 -68t69 -28t68 28t28 68t-28.5 69.5t-67.5 29.5q-41 0 -69.5 -29t-28.5 -70z" />
    <glyph glyph-name="divide" unicode="&#xf7;" horiz-adv-x="1198" 
d="M129 406v241h940v-241h-940zM162 438h874v176h-874v-176zM420 150q0 75 52.5 127.5t127.5 52.5q74 0 127 -53t53 -127q0 -75 -52.5 -128t-127.5 -53q-76 0 -128 52t-52 129zM420 899q0 75 52.5 127.5t127.5 52.5q74 0 127 -53.5t53 -126.5q0 -75 -52.5 -127.5
t-127.5 -52.5q-76 0 -128 51.5t-52 128.5zM453 150q0 -65 41.5 -106.5t105.5 -41.5q63 0 105.5 42.5t42.5 105.5q0 61 -43 104t-105 43q-63 0 -105 -42t-42 -105zM453 899q0 -65 41.5 -106t105.5 -41q63 0 105.5 42t42.5 105q0 61 -43 104.5t-105 43.5q-63 0 -105 -42.5
t-42 -105.5z" />
    <glyph glyph-name="oslash" unicode="&#xf8;" horiz-adv-x="1323" 
d="M59 129l97 94q-90 140 -90 305q0 157 79.5 290t217 210.5t299.5 77.5q173 0 319 -90l100 96l183 -182l-99 -94q92 -136 92 -308q0 -157 -79.5 -289.5t-216.5 -209t-299 -76.5q-174 0 -320 90l-100 -96zM98 528q0 -171 99 -309l-93 -90l138 -137l96 92q146 -98 324 -98
q153 0 282.5 72t205 197t75.5 273q0 176 -103 312l97 90l-138 137l-96 -92q-146 98 -323 98q-153 0 -283 -73t-205.5 -198.5t-75.5 -273.5zM279 528q0 160 111 269.5t272 109.5q109 0 198 -53l-532 -512q-49 82 -49 186zM311 528q0 -70 27 -131l467 449q-70 28 -143 28
q-148 0 -249.5 -100t-101.5 -246zM463 205l532 512q49 -82 49 -189q0 -158 -110.5 -267t-271.5 -109q-110 0 -199 53zM518 213q73 -29 144 -29q148 0 249 99.5t101 244.5q0 72 -27 134z" />
    <glyph glyph-name="ugrave" unicode="&#xf9;" horiz-adv-x="1249" 
d="M127 428v647h254v-653v-14t4 -34t11.5 -48t25.5 -51.5t42.5 -48.5t66.5 -34t94 -14t94 13.5t66.5 35t42.5 47.5t25.5 52t11 47.5t3.5 34.5v14v653h254v-647q0 -477 -497 -477q-498 0 -498 477zM160 428q0 -89 19.5 -161t48.5 -117.5t74 -78.5t83.5 -49t90 -25.5t81 -11
t68.5 -1.5t68.5 1.5t81 11t90 25.5t83.5 49t74 78.5t48.5 117.5t19.5 161v614h-189v-620v-16t-4.5 -38.5t-13 -55t-28.5 -58.5t-48.5 -54.5t-75.5 -38.5t-106 -16t-106 15.5t-75.5 39.5t-49 53.5t-29 59.5t-13 54t-4.5 39v16v620h-188v-614zM236 1565h315l201 -383h-242z
M301 1532l225 -318h172l-168 318h-229z" />
    <glyph glyph-name="uacute" unicode="&#xfa;" horiz-adv-x="1249" 
d="M127 428v647h254v-653v-14t4 -34t11.5 -48t25.5 -51.5t42.5 -48.5t66.5 -34t94 -14t94 13.5t66.5 35t42.5 47.5t25.5 52t11 47.5t3.5 34.5v14v653h254v-647q0 -477 -497 -477q-498 0 -498 477zM160 428q0 -89 19.5 -161t48.5 -117.5t74 -78.5t83.5 -49t90 -25.5t81 -11
t68.5 -1.5t68.5 1.5t81 11t90 25.5t83.5 49t74 78.5t48.5 117.5t19.5 161v614h-189v-620v-16t-4.5 -38.5t-13 -55t-28.5 -58.5t-48.5 -54.5t-75.5 -38.5t-106 -16t-106 15.5t-75.5 39.5t-49 53.5t-29 59.5t-13 54t-4.5 39v16v620h-188v-614zM500 1182l200 383h316l-275 -383
h-241zM553 1214h172l225 318h-229z" />
    <glyph glyph-name="ucircumflex" unicode="&#xfb;" horiz-adv-x="1249" 
d="M127 428v647h254v-653v-14t4 -34t11.5 -48t25.5 -51.5t42.5 -48.5t66.5 -34t94 -14t94 13.5t66.5 35t42.5 47.5t25.5 52t11 47.5t3.5 34.5v14v653h254v-647q0 -477 -497 -477q-498 0 -498 477zM160 428q0 -89 19.5 -161t48.5 -117.5t74 -78.5t83.5 -49t90 -25.5t81 -11
t68.5 -1.5t68.5 1.5t81 11t90 25.5t83.5 49t74 78.5t48.5 117.5t19.5 161v614h-189v-620v-16t-4.5 -38.5t-13 -55t-28.5 -58.5t-48.5 -54.5t-75.5 -38.5t-106 -16t-106 15.5t-75.5 39.5t-49 53.5t-29 59.5t-13 54t-4.5 39v16v620h-188v-614zM264 1182l236 383h248l235 -383
h-244l-114 157l-117 -157h-244zM322 1214h170l133 183l131 -183h170l-195 318h-215z" />
    <glyph glyph-name="udieresis" unicode="&#xfc;" horiz-adv-x="1249" 
d="M127 428v647h254v-653v-14t4 -34t11.5 -48t25.5 -51.5t42.5 -48.5t66.5 -34t94 -14t94 13.5t66.5 35t42.5 47.5t25.5 52t11 47.5t3.5 34.5v14v653h254v-647q0 -477 -497 -477q-498 0 -498 477zM160 428q0 -89 19.5 -161t48.5 -117.5t74 -78.5t83.5 -49t90 -25.5t81 -11
t68.5 -1.5t68.5 1.5t81 11t90 25.5t83.5 49t74 78.5t48.5 117.5t19.5 161v614h-189v-620v-16t-4.5 -38.5t-13 -55t-28.5 -58.5t-48.5 -54.5t-75.5 -38.5t-106 -16t-106 15.5t-75.5 39.5t-49 53.5t-29 59.5t-13 54t-4.5 39v16v620h-188v-614zM297 1335q0 54 38.5 92.5
t92.5 38.5t91.5 -38.5t37.5 -92.5q0 -53 -38.5 -91t-90.5 -38q-54 0 -92.5 37.5t-38.5 91.5zM330 1335q0 -40 29 -68t69 -28t68 28t28 68t-28.5 69.5t-67.5 29.5q-41 0 -69.5 -29t-28.5 -70zM690 1335q0 54 38.5 92.5t92.5 38.5t91.5 -38.5t37.5 -92.5q0 -53 -38 -91
t-91 -38q-54 0 -92.5 37.5t-38.5 91.5zM723 1335q0 -40 29 -68t69 -28t68.5 28t28.5 68t-28.5 69.5t-68.5 29.5q-41 0 -69.5 -29t-28.5 -70z" />
    <glyph glyph-name="yacute" unicode="&#xfd;" horiz-adv-x="1200" 
d="M14 1075h269l317 -680l318 680h268l-731 -1517h-273l285 565zM68 1042l436 -919l-268 -533h198l699 1452h-195l-338 -725l-338 725h-194zM475 1182l201 383h315l-274 -383h-242zM528 1214h172l226 318h-230z" />
    <glyph glyph-name="thorn" unicode="&#xfe;" horiz-adv-x="1378" 
d="M150 -451v1856l253 41v-453q64 54 153.5 83.5t186.5 29.5q160 0 290.5 -75.5t205 -208t74.5 -294.5q0 -161 -74.5 -292.5t-205 -207t-290.5 -75.5q-207 0 -340 121v-525h-253zM182 -418h189v576q132 -172 372 -172q150 0 273.5 70.5t193.5 195t70 276.5t-70 277
t-193.5 196.5t-273.5 71.5q-115 0 -215.5 -43t-156.5 -117v496l-189 -33v-1794zM358 528q0 167 110 274t280 107q150 0 250 -109t100 -272t-99.5 -270.5t-250.5 -107.5q-170 0 -280 106t-110 272zM391 528q0 -152 100 -249t257 -97q137 0 227 98.5t90 247.5q0 151 -90 250
t-227 99q-157 0 -257 -97.5t-100 -251.5z" />
    <glyph glyph-name="ydieresis" unicode="&#xff;" horiz-adv-x="1200" 
d="M14 1075h269l317 -680l318 680h268l-731 -1517h-273l285 565zM68 1042l436 -919l-268 -533h198l699 1452h-195l-338 -725l-338 725h-194zM272 1335q0 54 38.5 92.5t92.5 38.5t91.5 -38.5t37.5 -92.5q0 -53 -38 -91t-91 -38q-54 0 -92.5 37.5t-38.5 91.5zM305 1335
q0 -40 29 -68t69 -28t68.5 28t28.5 68t-28.5 69.5t-68.5 29.5q-41 0 -69.5 -29t-28.5 -70zM666 1335q0 54 38.5 92.5t92.5 38.5t91.5 -38.5t37.5 -92.5q0 -53 -38 -91t-91 -38q-54 0 -92.5 37.5t-38.5 91.5zM698 1335q0 -39 29.5 -67.5t69.5 -28.5t68 28t28 68t-28.5 69.5
t-67.5 29.5q-41 0 -70 -29t-29 -70z" />
    <glyph glyph-name="OE" unicode="&#x152;" horiz-adv-x="2451" 
d="M76 696q-2 154 55.5 293t157 238.5t238.5 157t294 55.5q276 3 484 -168v135h1048v-242h-792v-303h630v-241h-630v-396h804v-241h-1060v137q-208 -171 -484 -168q-155 -2 -294 55.5t-238.5 156.5t-157 238t-55.5 293zM109 696q-3 -197 90.5 -361.5t258.5 -258t363 -90.5
q149 -1 282 52.5t234 156.5v-179h996v177h-805v460h631v176h-631v369h792v176h-983v-176q-101 103 -234 156.5t-282 52.5q-148 2 -281.5 -52.5t-228.5 -149.5t-149.5 -228t-52.5 -281zM305 696q0 233 145 384t371 151q227 0 371.5 -150t144.5 -385t-144 -383.5t-372 -148.5
q-227 0 -371.5 149.5t-144.5 382.5zM338 696q0 -221 134.5 -360t348.5 -139q215 0 349.5 138t134.5 361q0 221 -135 361.5t-349 140.5q-212 0 -347.5 -141t-135.5 -361z" />
    <glyph glyph-name="oe" unicode="&#x153;" horiz-adv-x="2166" 
d="M66 528q0 157 79.5 290t217 210.5t299.5 77.5q136 0 259.5 -58.5t208.5 -162.5q82 105 204.5 163t264.5 58q141 0 256.5 -69t180.5 -189.5t65 -267.5v-119h-844q26 -132 120.5 -205.5t240.5 -73.5q51 0 101.5 6t90.5 16t76.5 22t63.5 23.5t46.5 21.5t30.5 16l11 6l16 -17
v-198l-6 -12q-5 -5 -15 -12.5t-47.5 -27t-82.5 -34.5t-123 -27t-166 -12q-153 0 -278.5 56t-207.5 161q-85 -103 -207.5 -160t-258.5 -57q-122 0 -232 45.5t-190 122t-127 183t-47 224.5zM98 528q0 -111 44.5 -211.5t120.5 -173t180 -115t219 -42.5q141 0 264.5 63.5
t201.5 175.5q75 -115 201 -177t285 -62q92 0 169.5 12t125.5 31t72.5 32t39.5 25v164q-31 -20 -76 -39.5t-136.5 -40t-190.5 -20.5q-167 0 -272.5 91.5t-124.5 252.5h847v86q0 211 -134 352t-335 141q-147 0 -271.5 -64.5t-197.5 -179.5q-78 114 -202.5 179t-265.5 65
q-153 0 -283 -73t-205.5 -198.5t-75.5 -273.5zM279 528q0 160 111 269.5t272 109.5t271.5 -109.5t110.5 -269.5q0 -158 -110.5 -267t-271.5 -109t-272 109t-111 267zM311 528q0 -145 101.5 -244.5t249.5 -99.5t249 99.5t101 244.5q0 146 -101 246t-249 100t-249.5 -100
t-101.5 -246zM1231 633q1 24 10.5 57.5t35 75.5t62 77t97.5 59t135 24q75 0 133 -24t90 -58.5t53 -78t27.5 -75t7.5 -57.5h-651zM1270 666h575q-6 38 -20.5 72t-44 72t-83.5 60.5t-126 22.5q-59 0 -108 -16t-81.5 -39.5t-56.5 -55.5t-36.5 -60t-18.5 -56z" />
    <glyph glyph-name="Ydieresis" unicode="&#x178;" horiz-adv-x="1384" 
d="M10 1407h305l377 -578l375 578h307l-553 -815v-608h-258v608zM72 1374l524 -774v-584h192v584l525 774h-230l-391 -606l-393 606h-227zM365 1669q0 54 38.5 92.5t92.5 38.5t91.5 -38.5t37.5 -92.5q0 -53 -38.5 -91t-90.5 -38q-54 0 -92.5 37.5t-38.5 91.5zM397 1669
q0 -39 29.5 -67.5t69.5 -28.5t68 28t28 68t-28 69t-68 29q-41 0 -70 -28.5t-29 -69.5zM758 1669q0 54 38.5 92.5t92.5 38.5t91.5 -38.5t37.5 -92.5q0 -53 -38 -91t-91 -38q-54 0 -92.5 37.5t-38.5 91.5zM791 1669q0 -40 29 -68t69 -28t68 28t28 68t-28 69t-68 29
q-41 0 -69.5 -28.5t-28.5 -69.5z" />
    <glyph glyph-name="circumflex" unicode="&#x2c6;" horiz-adv-x="743" 
d="M12 1184l236 383h248l235 -383h-244l-114 157l-117 -157h-244zM70 1217h170l133 182l131 -182h170l-195 317h-215z" />
    <glyph glyph-name="tilde" unicode="&#x2dc;" horiz-adv-x="901" 
d="M90 1255q17 117 71 181.5t136 64.5q78 0 156 -53h12v-2h-14l10 -4q70 -51 98 -51q11 0 18 5.5t11 17t6.5 22t5.5 28.5t6 29l201 -74q-17 -117 -71 -181t-136 -64q-78 0 -156 53h-12v2h14l-10 4q-70 51 -98 51q-11 0 -18 -5.5t-11 -17t-6.5 -22t-5.5 -28.5t-6 -29z
M127 1276l139 -49q14 90 72 90q40 0 115 -55h12v-2h-14l10 -3q68 -51 139 -51q63 0 107 50t63 143l-139 49q-14 -90 -72 -90q-40 0 -115 55h-12v2h14l-10 2q-68 51 -139 51q-63 0 -107 -49.5t-63 -142.5z" />
    <glyph glyph-name="uni2000" unicode="&#x2000;" horiz-adv-x="980" 
 />
    <glyph glyph-name="uni2001" unicode="&#x2001;" horiz-adv-x="1960" 
 />
    <glyph glyph-name="uni2002" unicode="&#x2002;" horiz-adv-x="980" 
 />
    <glyph glyph-name="uni2003" unicode="&#x2003;" horiz-adv-x="1960" 
 />
    <glyph glyph-name="uni2004" unicode="&#x2004;" horiz-adv-x="653" 
 />
    <glyph glyph-name="uni2005" unicode="&#x2005;" horiz-adv-x="490" 
 />
    <glyph glyph-name="uni2006" unicode="&#x2006;" horiz-adv-x="326" 
 />
    <glyph glyph-name="uni2007" unicode="&#x2007;" horiz-adv-x="326" 
 />
    <glyph glyph-name="uni2008" unicode="&#x2008;" horiz-adv-x="245" 
 />
    <glyph glyph-name="uni2009" unicode="&#x2009;" horiz-adv-x="392" 
 />
    <glyph glyph-name="uni200A" unicode="&#x200a;" horiz-adv-x="108" 
 />
    <glyph glyph-name="uni2010" unicode="&#x2010;" horiz-adv-x="1052" 
d="M129 483v242h795v-242h-795zM162 516h729v176h-729v-176z" />
    <glyph glyph-name="uni2011" unicode="&#x2011;" horiz-adv-x="1052" 
d="M129 483v242h795v-242h-795zM162 516h729v176h-729v-176z" />
    <glyph glyph-name="figuredash" unicode="&#x2012;" horiz-adv-x="1052" 
d="M129 483v242h795v-242h-795zM162 516h729v176h-729v-176z" />
    <glyph glyph-name="endash" unicode="&#x2013;" horiz-adv-x="1198" 
d="M129 483v242h940v-242h-940zM162 516h874v176h-874v-176z" />
    <glyph glyph-name="emdash" unicode="&#x2014;" horiz-adv-x="1689" 
d="M129 483v242h1432v-242h-1432zM162 516h1366v176h-1366v-176z" />
    <glyph glyph-name="quoteleft" unicode="&#x2018;" horiz-adv-x="608" 
d="M141 807l74 639h299l-164 -639h-209zM178 840h148l147 573h-229z" />
    <glyph glyph-name="quoteright" unicode="&#x2019;" horiz-adv-x="608" 
d="M109 807l163 639h209l-73 -639h-299zM150 840h229l65 573h-147z" />
    <glyph glyph-name="quotesinglbase" unicode="&#x201a;" horiz-adv-x="454" 
d="M41 -408l74 639h299l-164 -639h-209zM78 -375h147l148 574h-230z" />
    <glyph glyph-name="quotedblleft" unicode="&#x201c;" horiz-adv-x="1052" 
d="M131 807l207 639h211l-117 -639h-301zM176 840h227l105 573h-146zM520 807l164 639h209l-74 -639h-299zM561 840h230l65 573h-147z" />
    <glyph glyph-name="quotedblright" unicode="&#x201d;" horiz-adv-x="1052" 
d="M135 807l74 639h299l-164 -639h-209zM172 840h147l148 573h-229zM479 807l117 639h301l-207 -639h-211zM520 840h146l186 573h-227z" />
    <glyph glyph-name="quotedblbase" unicode="&#x201e;" horiz-adv-x="843" 
d="M41 -408l74 639h299l-164 -639h-209zM78 -375h147l148 574h-230zM385 -408l117 639h301l-207 -639h-211zM426 -375h145l187 574h-228z" />
    <glyph glyph-name="bullet" unicode="&#x2022;" horiz-adv-x="759" 
d="M119 592q0 109 76.5 185.5t183.5 76.5t184.5 -77.5t77.5 -184.5t-76.5 -183.5t-185.5 -76.5q-107 0 -183.5 76.5t-76.5 183.5zM152 592q0 -95 66 -161t161 -66t162 66.5t67 160.5q0 95 -67 162t-162 67q-94 0 -160.5 -67t-66.5 -162z" />
    <glyph glyph-name="ellipsis" unicode="&#x2026;" horiz-adv-x="1753" 
d="M172 150q0 75 52.5 127.5t127.5 52.5q74 0 127 -53t53 -127q0 -75 -52.5 -128t-127.5 -53q-76 0 -128 52t-52 129zM205 150q0 -65 41.5 -106.5t105.5 -41.5q63 0 105.5 42.5t42.5 105.5q0 61 -43 104t-105 43q-63 0 -105 -42t-42 -105zM690 150q0 75 52.5 127.5
t127.5 52.5q74 0 127.5 -53.5t53.5 -126.5q0 -75 -53 -128t-128 -53q-76 0 -128 52t-52 129zM723 150q0 -65 41.5 -106.5t105.5 -41.5q63 0 105.5 42.5t42.5 105.5q0 61 -43 104t-105 43q-63 0 -105 -42t-42 -105zM1212 150q0 75 53 127.5t128 52.5q73 0 126.5 -53
t53.5 -127q0 -75 -52.5 -128t-127.5 -53q-77 0 -129 52.5t-52 128.5zM1245 150q0 -64 41.5 -106t106.5 -42q63 0 105 42.5t42 105.5q0 62 -43 104.5t-104 42.5q-63 0 -105.5 -42t-42.5 -105z" />
    <glyph glyph-name="uni202F" unicode="&#x202f;" horiz-adv-x="392" 
 />
    <glyph glyph-name="guilsinglleft" unicode="&#x2039;" horiz-adv-x="622" 
d="M53 541l279 413h280l-276 -413l276 -435h-280zM94 541l254 -402h203l-256 402l256 381h-203z" />
    <glyph glyph-name="guilsinglright" unicode="&#x203a;" horiz-adv-x="622" 
d="M10 106l277 435l-277 413h281l278 -413l-278 -435h-281zM72 139h202l254 402l-254 381h-202l256 -381z" />
    <glyph glyph-name="uni205F" unicode="&#x205f;" horiz-adv-x="490" 
 />
    <glyph glyph-name="Euro" unicode="&#x20ac;" horiz-adv-x="1230" 
d="M88 449v243h182q0 47 2 72h-184v244h244q91 207 306.5 323t504.5 113v-256q-149 3 -276.5 -44.5t-207.5 -135.5h297v-244h-405q-4 -46 -4 -72h409v-243h-346q50 -85 139 -142t187.5 -79.5t206.5 -20.5v-256q-317 -3 -540 129.5t-298 368.5h-217zM121 481h209
q64 -230 271.5 -362t508.5 -135v190q-196 3 -344.5 85t-210.5 222h369v178h-410v33q0 56 8 105h402v178h-330q72 112 210 177.5t306 68.5v190q-274 -3 -475 -118.5t-283 -317.5h-231v-178h190q-8 -35 -8 -105v-33h-182v-178z" />
    <glyph glyph-name="trademark" unicode="&#x2122;" horiz-adv-x="1519" 
d="M66 1245v160h626v-160h-213v-514h-196v514h-217zM98 1278h217v-514h131v514h213v94h-561v-94zM723 731v674h233l134 -260l135 260h229v-674h-186v410l-92 -176h-172l-93 176v-410h-188zM756 764h123v508l145 -275h131l145 275v-508h121v608h-176l-155 -297l-154 297h-180
v-608z" />
    <glyph glyph-name="uni25FC" unicode="&#x25fc;" horiz-adv-x="1075" 
d="M0 0v1075h1075v-1075h-1075z" />
    <glyph glyph-name="uniFB03" unicode="&#xfb03;" horiz-adv-x="2308" 
d="M86 741v213h225q6 210 134.5 339.5t330.5 129.5q118 0 196 -44.5t122 -102.5q62 100 161.5 154.5t223.5 54.5q65 0 121.5 -12t90 -29.5t58 -34.5t33.5 -29l10 -12l2 -10v-197l-29 -12l-11.5 11.5t-33 25.5t-53 32t-71 25.5t-87.5 11.5q-123 0 -181.5 -72t-61.5 -229h710
v-778h246v-192h-745v192h245v565h-456v-757h-254v757h-447v-757h-254v757h-225zM119 774h225v-758h188v758h512v-758h189v758h522v-631h-246v-127h680v127h-245v779h-711q-3 188 64 277t212 89q135 0 252 -90v154q-12 16 -36.5 35.5t-92 42t-153.5 22.5q-131 0 -230 -62.5
t-151 -179.5q-45 87 -129.5 134t-192.5 47q-198 0 -317 -129t-115 -340h-225v-148zM532 922q-6 305 250 305q45 0 87.5 -17.5t71 -40.5t53.5 -53t36.5 -48.5t18.5 -33.5q-5 -87 -5 -112h-512zM565 954h447q0 26 4 72q-11 22 -28.5 46t-47 54t-71 49t-87.5 19
q-107 0 -160.5 -59t-56.5 -181z" />
    <glyph glyph-name="uniFB04" unicode="&#xfb04;" horiz-adv-x="2136" 
d="M86 741v213h225q6 210 134.5 339.5t330.5 129.5q66 0 122.5 -15.5t95.5 -41.5t63 -49t43 -49q68 103 174.5 160t234.5 57q77 0 145 -15t115 -39t86 -52.5t63 -57.5t40 -53t22 -39l7 -15l-7 -20l9 4v-1214h-254v1165q-4 8 -10.5 18t-23.5 26.5t-39 29.5t-59.5 22.5
t-82.5 9.5q-126 0 -188.5 -73.5t-65.5 -227.5h333v-213h-333v-757h-254v757h-447v-757h-254v757h-225zM119 774h225v-758h188v758h512v-758h189v758h334v148h-334q-6 366 287 366q56 0 101.5 -13.5t71 -32t43 -37.5t23.5 -33l6 -13l2 -6v-1137h189v1178l-25 12l21 11
q-11 22 -27 45.5t-54 59.5t-83.5 63t-119.5 47t-159 20q-134 0 -241.5 -65t-169.5 -181q-50 100 -147 148q-78 37 -175 37q-198 0 -317 -129t-115 -340h-225v-148zM532 922q-6 305 250 305q46 0 88.5 -17.5t71.5 -42t53.5 -54.5t36 -49.5t17.5 -33.5q-5 -41 -5 -108h-512z
M565 954h447q0 47 4 72q-13 24 -30 46.5t-46.5 53t-70.5 49.5t-87 19q-107 0 -160.5 -59t-56.5 -181z" />
    </font>
</defs>
</svg>
